<svg xmlns="http://www.w3.org/2000/svg" xmlns:xlink="http://www.w3.org/1999/xlink" width="500" zoomAndPan="magnify" viewBox="0 0 375 374.999991" height="500" preserveAspectRatio="xMidYMid meet" version="1.0"><defs><g/><clipPath id="23f46c9843"><path d="M 125 127 L 165 127 L 165 184 L 125 184 Z M 125 127 " clip-rule="nonzero"/></clipPath><clipPath id="38f03b6717"><path d="M 69.386719 163.449219 L 127.191406 105.640625 L 182.875 161.328125 L 125.070312 219.132812 Z M 69.386719 163.449219 " clip-rule="nonzero"/></clipPath><clipPath id="78a9e3eead"><path d="M 69.386719 163.449219 L 127.191406 105.640625 L 182.875 161.328125 L 125.070312 219.132812 Z M 69.386719 163.449219 " clip-rule="nonzero"/></clipPath><clipPath id="880aeb48bc"><path d="M 69.386719 163.449219 L 127.191406 105.640625 L 182.875 161.328125 L 125.070312 219.132812 Z M 69.386719 163.449219 " clip-rule="nonzero"/></clipPath><clipPath id="5d9b693f4a"><path d="M 69 145 L 141 145 L 141 198 L 69 198 Z M 69 145 " clip-rule="nonzero"/></clipPath><clipPath id="8fe7c4bfdc"><path d="M 69.386719 163.449219 L 127.191406 105.640625 L 182.875 161.328125 L 125.070312 219.132812 Z M 69.386719 163.449219 " clip-rule="nonzero"/></clipPath><clipPath id="6633cab843"><path d="M 69.386719 163.449219 L 127.191406 105.640625 L 182.875 161.328125 L 125.070312 219.132812 Z M 69.386719 163.449219 " clip-rule="nonzero"/></clipPath><clipPath id="224a46ed8a"><path d="M 69.386719 163.449219 L 127.191406 105.640625 L 182.875 161.328125 L 125.070312 219.132812 Z M 69.386719 163.449219 " clip-rule="nonzero"/></clipPath></defs><rect x="-37.5" width="450" fill="#ffffff" y="-37.499999" height="449.999989" fill-opacity="1"/><rect x="-37.5" width="450" fill="#ffffff" y="-37.499999" height="449.999989" fill-opacity="1"/><g clip-path="url(#23f46c9843)"><g clip-path="url(#38f03b6717)"><g clip-path="url(#78a9e3eead)"><g clip-path="url(#880aeb48bc)"><path fill="#80cc28" d="M 164.445312 159.804688 C 161.6875 140.195312 128.855469 127.097656 128.855469 127.097656 C 128.855469 127.097656 132.671875 144.632812 128.132812 155.136719 C 125.097656 162.15625 121.226562 184.632812 148.027344 183.964844 C 148.3125 183.960938 148.605469 183.945312 148.90625 183.921875 C 152.128906 173.859375 155.3125 151.40625 130.96875 129.644531 C 130.96875 129.644531 161.804688 151.320312 150.496094 183.746094 C 157.699219 182.675781 166.90625 177.3125 164.445312 159.804688 " fill-opacity="1" fill-rule="nonzero"/></g></g></g></g><g clip-path="url(#5d9b693f4a)"><g clip-path="url(#8fe7c4bfdc)"><g clip-path="url(#6633cab843)"><g clip-path="url(#224a46ed8a)"><path fill="#27963c" d="M 122.960938 164.679688 C 111.1875 159.390625 94.960938 156.8125 73.578125 162.890625 C 73.578125 162.890625 99.195312 152.238281 123.402344 162.304688 C 123.804688 160.535156 124.3125 159 124.804688 157.871094 C 126.207031 154.621094 126.8125 150.703125 126.976562 146.835938 C 104.03125 138.292969 69.421875 163.425781 69.421875 163.425781 C 69.421875 163.425781 90.816406 171.257812 99.023438 183.273438 C 104.148438 190.789062 123.320312 208.296875 140.007812 186.5625 C 123.671875 185.085938 121.71875 173.226562 122.960938 164.679688 " fill-opacity="1" fill-rule="nonzero"/></g></g></g></g><g fill="#3c4937" fill-opacity="1"><g transform="translate(138.049823, 218.404067)"><g><path d="M 2.40625 -10.421875 C 2.40625 -12.390625 2.757812 -14.082031 3.46875 -15.5 C 4.1875 -16.925781 5.179688 -18.109375 6.453125 -19.046875 C 7.722656 -19.984375 9.238281 -20.6875 11 -21.15625 C 12.757812 -21.625 14.707031 -21.859375 16.84375 -21.859375 C 18.71875 -21.859375 20.320312 -21.722656 21.65625 -21.453125 C 22.988281 -21.191406 24.300781 -20.835938 25.59375 -20.390625 L 25.59375 -20.984375 C 25.59375 -25.359375 23.035156 -27.546875 17.921875 -27.546875 C 16.492188 -27.546875 15.1875 -27.5 14 -27.40625 C 12.820312 -27.3125 11.785156 -27.019531 10.890625 -26.53125 C 10.535156 -26.351562 10.046875 -26.265625 9.421875 -26.265625 C 8.265625 -26.265625 7.273438 -26.664062 6.453125 -27.46875 C 5.628906 -28.269531 5.21875 -29.25 5.21875 -30.40625 C 5.21875 -31.300781 5.472656 -32.101562 5.984375 -32.8125 C 6.492188 -33.53125 7.148438 -34.046875 7.953125 -34.359375 C 9.554688 -34.984375 11.257812 -35.453125 13.0625 -35.765625 C 14.875 -36.078125 16.984375 -36.234375 19.390625 -36.234375 C 24.640625 -36.234375 28.613281 -34.972656 31.3125 -32.453125 C 34.007812 -29.929688 35.359375 -26.039062 35.359375 -20.78125 L 35.359375 -4.484375 C 35.359375 -3.097656 34.878906 -1.9375 33.921875 -1 C 32.960938 -0.0625 31.789062 0.40625 30.40625 0.40625 C 28.9375 0.40625 27.753906 -0.0234375 26.859375 -0.890625 C 25.972656 -1.765625 25.53125 -2.738281 25.53125 -3.8125 L 25.53125 -3.875 C 24.28125 -2.5 22.796875 -1.394531 21.078125 -0.5625 C 19.367188 0.257812 17.242188 0.671875 14.703125 0.671875 C 13.015625 0.671875 11.421875 0.4375 9.921875 -0.03125 C 8.429688 -0.5 7.128906 -1.203125 6.015625 -2.140625 C 4.898438 -3.078125 4.019531 -4.222656 3.375 -5.578125 C 2.726562 -6.941406 2.40625 -8.515625 2.40625 -10.296875 Z M 12.234375 -10.828125 L 12.234375 -10.6875 C 12.234375 -9.3125 12.742188 -8.242188 13.765625 -7.484375 C 14.796875 -6.722656 16.132812 -6.34375 17.78125 -6.34375 C 20.1875 -6.34375 22.113281 -6.921875 23.5625 -8.078125 C 25.007812 -9.242188 25.734375 -10.765625 25.734375 -12.640625 L 25.734375 -14.4375 C 24.835938 -14.84375 23.84375 -15.164062 22.75 -15.40625 C 21.664062 -15.65625 20.5 -15.78125 19.25 -15.78125 C 17.0625 -15.78125 15.34375 -15.351562 14.09375 -14.5 C 12.851562 -13.65625 12.234375 -12.429688 12.234375 -10.828125 Z M 12.234375 -10.828125 "/></g></g></g><g fill="#3c4937" fill-opacity="1"><g transform="translate(170.672809, 218.404067)"><g><path d="M 2.9375 -17.984375 C 2.9375 -20.960938 3.394531 -23.597656 4.3125 -25.890625 C 5.226562 -28.191406 6.429688 -30.132812 7.921875 -31.71875 C 9.410156 -33.300781 11.132812 -34.492188 13.09375 -35.296875 C 15.0625 -36.097656 17.113281 -36.5 19.25 -36.5 C 21.96875 -36.5 24.207031 -35.960938 25.96875 -34.890625 C 27.726562 -33.816406 29.207031 -32.570312 30.40625 -31.15625 L 30.40625 -44.109375 C 30.40625 -45.535156 30.894531 -46.738281 31.875 -47.71875 C 32.863281 -48.707031 34.070312 -49.203125 35.5 -49.203125 C 36.925781 -49.203125 38.128906 -48.707031 39.109375 -47.71875 C 40.085938 -46.738281 40.578125 -45.535156 40.578125 -44.109375 L 40.578125 -4.671875 C 40.578125 -3.253906 40.085938 -2.050781 39.109375 -1.0625 C 38.128906 -0.0820312 36.925781 0.40625 35.5 0.40625 C 34.070312 0.40625 32.863281 -0.0820312 31.875 -1.0625 C 30.894531 -2.050781 30.40625 -3.253906 30.40625 -4.671875 L 30.40625 -5.140625 C 29.164062 -3.453125 27.664062 -2.0625 25.90625 -0.96875 C 24.144531 0.125 21.925781 0.671875 19.25 0.671875 C 17.15625 0.671875 15.128906 0.269531 13.171875 -0.53125 C 11.210938 -1.332031 9.472656 -2.523438 7.953125 -4.109375 C 6.441406 -5.691406 5.226562 -7.628906 4.3125 -9.921875 C 3.394531 -12.222656 2.9375 -14.863281 2.9375 -17.84375 Z M 13.09375 -17.984375 L 13.09375 -17.84375 C 13.09375 -16.375 13.328125 -15.023438 13.796875 -13.796875 C 14.265625 -12.578125 14.898438 -11.53125 15.703125 -10.65625 C 16.503906 -9.789062 17.425781 -9.125 18.46875 -8.65625 C 19.519531 -8.1875 20.648438 -7.953125 21.859375 -7.953125 C 23.054688 -7.953125 24.175781 -8.1875 25.21875 -8.65625 C 26.269531 -9.125 27.1875 -9.789062 27.96875 -10.65625 C 28.75 -11.53125 29.375 -12.578125 29.84375 -13.796875 C 30.3125 -15.023438 30.546875 -16.375 30.546875 -17.84375 L 30.546875 -17.984375 C 30.546875 -19.453125 30.3125 -20.796875 29.84375 -22.015625 C 29.375 -23.242188 28.75 -24.289062 27.96875 -25.15625 C 27.1875 -26.03125 26.269531 -26.703125 25.21875 -27.171875 C 24.175781 -27.640625 23.054688 -27.875 21.859375 -27.875 C 20.648438 -27.875 19.519531 -27.640625 18.46875 -27.171875 C 17.425781 -26.703125 16.503906 -26.03125 15.703125 -25.15625 C 14.898438 -24.289062 14.265625 -23.253906 13.796875 -22.046875 C 13.328125 -20.847656 13.09375 -19.492188 13.09375 -17.984375 Z M 13.09375 -17.984375 "/></g></g></g><g fill="#3c4937" fill-opacity="1"><g transform="translate(208.844417, 218.404067)"><g><path d="M 2.9375 -17.984375 C 2.9375 -20.960938 3.394531 -23.597656 4.3125 -25.890625 C 5.226562 -28.191406 6.429688 -30.132812 7.921875 -31.71875 C 9.410156 -33.300781 11.132812 -34.492188 13.09375 -35.296875 C 15.0625 -36.097656 17.113281 -36.5 19.25 -36.5 C 21.96875 -36.5 24.207031 -35.960938 25.96875 -34.890625 C 27.726562 -33.816406 29.207031 -32.570312 30.40625 -31.15625 L 30.40625 -44.109375 C 30.40625 -45.535156 30.894531 -46.738281 31.875 -47.71875 C 32.863281 -48.707031 34.070312 -49.203125 35.5 -49.203125 C 36.925781 -49.203125 38.128906 -48.707031 39.109375 -47.71875 C 40.085938 -46.738281 40.578125 -45.535156 40.578125 -44.109375 L 40.578125 -4.671875 C 40.578125 -3.253906 40.085938 -2.050781 39.109375 -1.0625 C 38.128906 -0.0820312 36.925781 0.40625 35.5 0.40625 C 34.070312 0.40625 32.863281 -0.0820312 31.875 -1.0625 C 30.894531 -2.050781 30.40625 -3.253906 30.40625 -4.671875 L 30.40625 -5.140625 C 29.164062 -3.453125 27.664062 -2.0625 25.90625 -0.96875 C 24.144531 0.125 21.925781 0.671875 19.25 0.671875 C 17.15625 0.671875 15.128906 0.269531 13.171875 -0.53125 C 11.210938 -1.332031 9.472656 -2.523438 7.953125 -4.109375 C 6.441406 -5.691406 5.226562 -7.628906 4.3125 -9.921875 C 3.394531 -12.222656 2.9375 -14.863281 2.9375 -17.84375 Z M 13.09375 -17.984375 L 13.09375 -17.84375 C 13.09375 -16.375 13.328125 -15.023438 13.796875 -13.796875 C 14.265625 -12.578125 14.898438 -11.53125 15.703125 -10.65625 C 16.503906 -9.789062 17.425781 -9.125 18.46875 -8.65625 C 19.519531 -8.1875 20.648438 -7.953125 21.859375 -7.953125 C 23.054688 -7.953125 24.175781 -8.1875 25.21875 -8.65625 C 26.269531 -9.125 27.1875 -9.789062 27.96875 -10.65625 C 28.75 -11.53125 29.375 -12.578125 29.84375 -13.796875 C 30.3125 -15.023438 30.546875 -16.375 30.546875 -17.84375 L 30.546875 -17.984375 C 30.546875 -19.453125 30.3125 -20.796875 29.84375 -22.015625 C 29.375 -23.242188 28.75 -24.289062 27.96875 -25.15625 C 27.1875 -26.03125 26.269531 -26.703125 25.21875 -27.171875 C 24.175781 -27.640625 23.054688 -27.875 21.859375 -27.875 C 20.648438 -27.875 19.519531 -27.640625 18.46875 -27.171875 C 17.425781 -26.703125 16.503906 -26.03125 15.703125 -25.15625 C 14.898438 -24.289062 14.265625 -23.253906 13.796875 -22.046875 C 13.328125 -20.847656 13.09375 -19.492188 13.09375 -17.984375 Z M 13.09375 -17.984375 "/></g></g></g><g fill="#3c4937" fill-opacity="1"><g transform="translate(247.016023, 218.404067)"><g><path d="M 10.09375 -36.234375 C 11.519531 -36.234375 12.722656 -35.738281 13.703125 -34.75 C 14.679688 -33.769531 15.171875 -32.570312 15.171875 -31.15625 L 15.171875 -4.671875 C 15.171875 -3.253906 14.679688 -2.050781 13.703125 -1.0625 C 12.722656 -0.0820312 11.519531 0.40625 10.09375 0.40625 C 8.664062 0.40625 7.460938 -0.0820312 6.484375 -1.0625 C 5.503906 -2.050781 5.015625 -3.253906 5.015625 -4.671875 L 5.015625 -31.15625 C 5.015625 -32.570312 5.503906 -33.769531 6.484375 -34.75 C 7.460938 -35.738281 8.664062 -36.234375 10.09375 -36.234375 Z M 10.09375 -49.125 C 11.695312 -49.125 13.046875 -48.703125 14.140625 -47.859375 C 15.234375 -47.015625 15.78125 -45.859375 15.78125 -44.390625 L 15.78125 -44.25 C 15.78125 -42.78125 15.234375 -41.609375 14.140625 -40.734375 C 13.046875 -39.867188 11.695312 -39.4375 10.09375 -39.4375 C 8.488281 -39.4375 7.140625 -39.867188 6.046875 -40.734375 C 4.953125 -41.609375 4.40625 -42.78125 4.40625 -44.25 L 4.40625 -44.390625 C 4.40625 -45.859375 4.953125 -47.015625 6.046875 -47.859375 C 7.140625 -48.703125 8.488281 -49.125 10.09375 -49.125 Z M 10.09375 -49.125 "/></g></g></g><g fill="#3c4937" fill-opacity="1"><g transform="translate(260.252257, 218.404067)"><g><path d="M 5.6875 -10.890625 C 6.394531 -10.890625 7.0625 -10.710938 7.6875 -10.359375 C 9.46875 -9.378906 11.171875 -8.597656 12.796875 -8.015625 C 14.421875 -7.441406 15.945312 -7.15625 17.375 -7.15625 C 18.84375 -7.15625 19.921875 -7.398438 20.609375 -7.890625 C 21.304688 -8.378906 21.65625 -9.023438 21.65625 -9.828125 L 21.65625 -9.953125 C 21.65625 -10.492188 21.453125 -10.960938 21.046875 -11.359375 C 20.648438 -11.765625 20.101562 -12.109375 19.40625 -12.390625 C 18.71875 -12.679688 17.925781 -12.960938 17.03125 -13.234375 C 16.144531 -13.503906 15.210938 -13.796875 14.234375 -14.109375 C 12.984375 -14.460938 11.722656 -14.894531 10.453125 -15.40625 C 9.191406 -15.914062 8.046875 -16.582031 7.015625 -17.40625 C 5.992188 -18.238281 5.160156 -19.253906 4.515625 -20.453125 C 3.867188 -21.660156 3.546875 -23.128906 3.546875 -24.859375 L 3.546875 -25 C 3.546875 -26.820312 3.890625 -28.4375 4.578125 -29.84375 C 5.265625 -31.25 6.195312 -32.441406 7.375 -33.421875 C 8.5625 -34.398438 9.957031 -35.132812 11.5625 -35.625 C 13.164062 -36.113281 14.859375 -36.359375 16.640625 -36.359375 C 18.515625 -36.359375 20.382812 -36.101562 22.25 -35.59375 C 24.125 -35.082031 25.953125 -34.425781 27.734375 -33.625 C 29.335938 -32.90625 30.140625 -31.632812 30.140625 -29.8125 C 30.140625 -28.65625 29.75 -27.695312 28.96875 -26.9375 C 28.195312 -26.175781 27.226562 -25.796875 26.0625 -25.796875 C 25.394531 -25.796875 24.773438 -25.953125 24.203125 -26.265625 C 22.773438 -27.066406 21.390625 -27.644531 20.046875 -28 C 18.710938 -28.363281 17.507812 -28.546875 16.4375 -28.546875 C 15.195312 -28.546875 14.265625 -28.3125 13.640625 -27.84375 C 13.015625 -27.375 12.703125 -26.78125 12.703125 -26.0625 L 12.703125 -25.9375 C 12.703125 -25.488281 12.898438 -25.0625 13.296875 -24.65625 C 13.703125 -24.257812 14.238281 -23.894531 14.90625 -23.5625 C 15.570312 -23.226562 16.335938 -22.90625 17.203125 -22.59375 C 18.078125 -22.28125 19.003906 -21.96875 19.984375 -21.65625 C 21.234375 -21.257812 22.503906 -20.78125 23.796875 -20.21875 C 25.085938 -19.664062 26.242188 -18.988281 27.265625 -18.1875 C 28.296875 -17.382812 29.144531 -16.398438 29.8125 -15.234375 C 30.476562 -14.078125 30.8125 -12.675781 30.8125 -11.03125 L 30.8125 -10.890625 C 30.8125 -8.890625 30.46875 -7.164062 29.78125 -5.71875 C 29.09375 -4.269531 28.125 -3.078125 26.875 -2.140625 C 25.625 -1.203125 24.171875 -0.5 22.515625 -0.03125 C 20.867188 0.4375 19.066406 0.671875 17.109375 0.671875 C 14.835938 0.671875 12.550781 0.359375 10.25 -0.265625 C 7.957031 -0.890625 5.742188 -1.9375 3.609375 -3.40625 C 3.078125 -3.757812 2.617188 -4.226562 2.234375 -4.8125 C 1.859375 -5.394531 1.671875 -6.085938 1.671875 -6.890625 C 1.671875 -8.046875 2.046875 -9 2.796875 -9.75 C 3.554688 -10.507812 4.519531 -10.890625 5.6875 -10.890625 Z M 5.6875 -10.890625 "/></g></g></g><g fill="#26973c" fill-opacity="1"><g transform="translate(198.949387, 238.102528)"><g><path d="M 3.015625 -1.296875 C 3.015625 -1.867188 3.015625 -2.429688 3.015625 -2.984375 C 3.015625 -3.546875 3.015625 -4.113281 3.015625 -4.6875 C 2.984375 -5.269531 2.988281 -5.859375 3.03125 -6.453125 C 3.070312 -7.046875 3.101562 -7.632812 3.125 -8.21875 C 3.125 -8.46875 3.097656 -8.613281 3.046875 -8.65625 C 2.992188 -8.695312 2.847656 -8.6875 2.609375 -8.625 C 2.128906 -8.46875 1.726562 -8.203125 1.40625 -7.828125 C 1.363281 -7.796875 1.332031 -7.753906 1.3125 -7.703125 C 1.289062 -7.660156 1.257812 -7.625 1.21875 -7.59375 C 1.113281 -7.507812 0.972656 -7.460938 0.796875 -7.453125 C 0.628906 -7.453125 0.507812 -7.492188 0.4375 -7.578125 C 0.351562 -7.671875 0.320312 -7.769531 0.34375 -7.875 C 0.375 -7.976562 0.421875 -8.082031 0.484375 -8.1875 C 0.566406 -8.320312 0.660156 -8.441406 0.765625 -8.546875 C 0.878906 -8.648438 1.007812 -8.75 1.15625 -8.84375 C 1.625 -9.1875 2.144531 -9.390625 2.71875 -9.453125 C 3.039062 -9.492188 3.203125 -9.675781 3.203125 -10 C 3.203125 -10.09375 3.203125 -10.1875 3.203125 -10.28125 C 3.203125 -10.382812 3.203125 -10.488281 3.203125 -10.59375 C 3.210938 -11.3125 3.234375 -12.03125 3.265625 -12.75 C 3.304688 -13.46875 3.375 -14.179688 3.46875 -14.890625 C 3.5 -15.179688 3.535156 -15.382812 3.578125 -15.5 C 3.617188 -15.625 3.703125 -15.695312 3.828125 -15.71875 C 3.953125 -15.738281 4.15625 -15.742188 4.4375 -15.734375 C 4.738281 -15.734375 4.953125 -15.71875 5.078125 -15.6875 C 5.203125 -15.664062 5.289062 -15.585938 5.34375 -15.453125 C 5.394531 -15.328125 5.441406 -15.117188 5.484375 -14.828125 C 5.535156 -14.398438 5.578125 -13.96875 5.609375 -13.53125 C 5.640625 -13.101562 5.65625 -12.671875 5.65625 -12.234375 C 5.632812 -11.847656 5.625 -11.457031 5.625 -11.0625 C 5.625 -10.664062 5.617188 -10.269531 5.609375 -9.875 C 5.609375 -9.75 5.628906 -9.644531 5.671875 -9.5625 C 5.722656 -9.488281 5.820312 -9.445312 5.96875 -9.4375 C 6.488281 -9.382812 7.015625 -9.351562 7.546875 -9.34375 C 8.078125 -9.332031 8.609375 -9.328125 9.140625 -9.328125 C 9.296875 -9.328125 9.394531 -9.367188 9.4375 -9.453125 C 9.476562 -9.535156 9.503906 -9.640625 9.515625 -9.765625 C 9.578125 -10.503906 9.671875 -11.242188 9.796875 -11.984375 C 9.921875 -12.722656 10.050781 -13.460938 10.1875 -14.203125 C 10.238281 -14.453125 10.300781 -14.695312 10.375 -14.9375 C 10.457031 -15.1875 10.539062 -15.429688 10.625 -15.671875 C 10.738281 -15.972656 10.941406 -16.117188 11.234375 -16.109375 C 11.472656 -16.109375 11.703125 -16.109375 11.921875 -16.109375 C 12.148438 -16.117188 12.375 -16.125 12.59375 -16.125 C 12.769531 -16.125 12.875 -16.101562 12.90625 -16.0625 C 12.945312 -16.019531 12.945312 -15.914062 12.90625 -15.75 C 12.65625 -14.945312 12.457031 -14.125 12.3125 -13.28125 C 12.175781 -12.445312 12.019531 -11.613281 11.84375 -10.78125 C 11.8125 -10.625 11.78125 -10.460938 11.75 -10.296875 C 11.726562 -10.128906 11.703125 -9.960938 11.671875 -9.796875 C 11.628906 -9.554688 11.734375 -9.460938 11.984375 -9.515625 C 12.066406 -9.535156 12.148438 -9.554688 12.234375 -9.578125 C 12.316406 -9.597656 12.410156 -9.613281 12.515625 -9.625 C 12.566406 -9.632812 12.617188 -9.648438 12.671875 -9.671875 C 12.734375 -9.691406 12.789062 -9.703125 12.84375 -9.703125 C 12.945312 -9.703125 13.046875 -9.695312 13.140625 -9.6875 C 13.234375 -9.6875 13.296875 -9.617188 13.328125 -9.484375 C 13.359375 -9.367188 13.332031 -9.28125 13.25 -9.21875 C 13.175781 -9.164062 13.097656 -9.125 13.015625 -9.09375 C 12.890625 -9.050781 12.757812 -9.007812 12.625 -8.96875 C 12.488281 -8.925781 12.351562 -8.898438 12.21875 -8.890625 C 11.976562 -8.859375 11.804688 -8.828125 11.703125 -8.796875 C 11.597656 -8.773438 11.523438 -8.707031 11.484375 -8.59375 C 11.453125 -8.488281 11.425781 -8.300781 11.40625 -8.03125 C 11.257812 -6.84375 11.175781 -5.660156 11.15625 -4.484375 C 11.132812 -3.304688 11.226562 -2.132812 11.4375 -0.96875 C 11.5 -0.644531 11.570312 -0.332031 11.65625 -0.03125 C 11.75 0.269531 11.867188 0.5625 12.015625 0.84375 C 12.054688 0.9375 12.097656 1.03125 12.140625 1.125 C 12.191406 1.226562 12.253906 1.320312 12.328125 1.40625 C 12.472656 1.625 12.59375 1.734375 12.6875 1.734375 C 12.789062 1.742188 12.941406 1.65625 13.140625 1.46875 C 13.378906 1.226562 13.582031 0.960938 13.75 0.671875 C 13.925781 0.390625 14.085938 0.0976562 14.234375 -0.203125 C 14.523438 -0.816406 14.789062 -1.441406 15.03125 -2.078125 C 15.28125 -2.710938 15.535156 -3.34375 15.796875 -3.96875 C 15.828125 -4.050781 15.851562 -4.128906 15.875 -4.203125 C 15.90625 -4.273438 15.941406 -4.347656 15.984375 -4.421875 C 16.160156 -4.847656 16.453125 -4.9375 16.859375 -4.6875 C 16.960938 -4.632812 17.003906 -4.566406 16.984375 -4.484375 C 16.960938 -4.410156 16.9375 -4.335938 16.90625 -4.265625 C 16.65625 -3.523438 16.394531 -2.789062 16.125 -2.0625 C 15.851562 -1.34375 15.539062 -0.632812 15.1875 0.0625 C 15.050781 0.351562 14.890625 0.628906 14.703125 0.890625 C 14.523438 1.148438 14.335938 1.40625 14.140625 1.65625 C 13.679688 2.226562 13.078125 2.476562 12.328125 2.40625 C 12.015625 2.375 11.742188 2.285156 11.515625 2.140625 C 11.296875 1.992188 11.097656 1.8125 10.921875 1.59375 C 10.703125 1.34375 10.515625 1.066406 10.359375 0.765625 C 10.210938 0.460938 10.085938 0.148438 9.984375 -0.171875 C 9.753906 -0.835938 9.585938 -1.515625 9.484375 -2.203125 C 9.378906 -2.898438 9.316406 -3.59375 9.296875 -4.28125 C 9.253906 -4.925781 9.242188 -5.5625 9.265625 -6.1875 C 9.296875 -6.820312 9.332031 -7.453125 9.375 -8.078125 C 9.382812 -8.335938 9.367188 -8.492188 9.328125 -8.546875 C 9.285156 -8.597656 9.132812 -8.625 8.875 -8.625 C 8.382812 -8.625 7.894531 -8.625 7.40625 -8.625 C 6.925781 -8.625 6.445312 -8.625 5.96875 -8.625 C 5.769531 -8.625 5.648438 -8.601562 5.609375 -8.5625 C 5.566406 -8.53125 5.535156 -8.410156 5.515625 -8.203125 C 5.410156 -7.015625 5.320312 -5.820312 5.25 -4.625 C 5.175781 -3.4375 5.117188 -2.242188 5.078125 -1.046875 C 5.054688 -0.597656 5.015625 -0.273438 4.953125 -0.078125 C 4.898438 0.109375 4.769531 0.222656 4.5625 0.265625 C 4.363281 0.304688 4.039062 0.316406 3.59375 0.296875 C 3.363281 0.273438 3.21875 0.148438 3.15625 -0.078125 C 3.101562 -0.273438 3.066406 -0.476562 3.046875 -0.6875 C 3.023438 -0.894531 3.015625 -1.097656 3.015625 -1.296875 Z M 3.015625 -1.296875 "/></g></g></g><g fill="#26973c" fill-opacity="1"><g transform="translate(220.529081, 238.102528)"><g><path d="M 5.921875 0.359375 C 5.484375 0.367188 5.050781 0.367188 4.625 0.359375 C 4.207031 0.359375 3.789062 0.359375 3.375 0.359375 C 2.96875 0.367188 2.5625 0.382812 2.15625 0.40625 C 1.75 0.4375 1.34375 0.460938 0.9375 0.484375 C 0.832031 0.484375 0.71875 0.476562 0.59375 0.46875 C 0.476562 0.457031 0.359375 0.453125 0.234375 0.453125 C 0.0234375 0.441406 -0.0859375 0.3125 -0.109375 0.0625 C -0.128906 -0.144531 -0.03125 -0.269531 0.1875 -0.3125 C 0.664062 -0.425781 1.132812 -0.488281 1.59375 -0.5 C 1.675781 -0.5 1.753906 -0.5 1.828125 -0.5 C 1.910156 -0.507812 1.992188 -0.515625 2.078125 -0.515625 C 2.253906 -0.535156 2.335938 -0.644531 2.328125 -0.84375 C 2.328125 -0.894531 2.328125 -0.945312 2.328125 -1 C 2.328125 -1.0625 2.328125 -1.125 2.328125 -1.1875 C 2.328125 -2.039062 2.320312 -2.890625 2.3125 -3.734375 C 2.300781 -4.578125 2.3125 -5.425781 2.34375 -6.28125 C 2.382812 -7.65625 2.441406 -9.03125 2.515625 -10.40625 C 2.597656 -11.789062 2.710938 -13.171875 2.859375 -14.546875 C 2.890625 -14.898438 2.910156 -15.234375 2.921875 -15.546875 C 2.941406 -15.742188 2.921875 -15.863281 2.859375 -15.90625 C 2.804688 -15.957031 2.679688 -15.976562 2.484375 -15.96875 C 2.273438 -15.945312 2.078125 -15.898438 1.890625 -15.828125 C 1.710938 -15.765625 1.535156 -15.691406 1.359375 -15.609375 C 1.242188 -15.554688 1.128906 -15.507812 1.015625 -15.46875 C 0.898438 -15.425781 0.769531 -15.410156 0.625 -15.421875 C 0.550781 -15.429688 0.476562 -15.441406 0.40625 -15.453125 C 0.332031 -15.472656 0.273438 -15.523438 0.234375 -15.609375 C 0.191406 -15.703125 0.191406 -15.78125 0.234375 -15.84375 C 0.285156 -15.90625 0.335938 -15.96875 0.390625 -16.03125 C 0.503906 -16.125 0.625 -16.207031 0.75 -16.28125 C 0.875 -16.363281 1.007812 -16.4375 1.15625 -16.5 C 1.851562 -16.8125 2.582031 -16.921875 3.34375 -16.828125 C 4.613281 -16.648438 5.878906 -16.585938 7.140625 -16.640625 C 7.234375 -16.640625 7.332031 -16.628906 7.4375 -16.609375 C 7.550781 -16.597656 7.648438 -16.554688 7.734375 -16.484375 C 7.953125 -16.328125 7.945312 -16.195312 7.71875 -16.09375 C 7.632812 -16.050781 7.546875 -16.019531 7.453125 -16 C 7.367188 -15.988281 7.285156 -15.976562 7.203125 -15.96875 C 6.953125 -15.945312 6.695312 -15.925781 6.4375 -15.90625 C 6.175781 -15.882812 5.921875 -15.867188 5.671875 -15.859375 C 5.503906 -15.859375 5.394531 -15.828125 5.34375 -15.765625 C 5.289062 -15.703125 5.273438 -15.59375 5.296875 -15.4375 C 5.347656 -14.613281 5.375 -13.796875 5.375 -12.984375 C 5.375 -12.171875 5.351562 -11.351562 5.3125 -10.53125 C 5.269531 -9.882812 5.21875 -9.242188 5.15625 -8.609375 C 5.101562 -7.972656 5.066406 -7.332031 5.046875 -6.6875 C 4.984375 -5.769531 4.929688 -4.851562 4.890625 -3.9375 C 4.847656 -3.03125 4.804688 -2.113281 4.765625 -1.1875 C 4.765625 -0.882812 4.789062 -0.707031 4.84375 -0.65625 C 4.90625 -0.601562 5.085938 -0.578125 5.390625 -0.578125 C 5.734375 -0.597656 6.070312 -0.617188 6.40625 -0.640625 C 6.738281 -0.671875 7.070312 -0.664062 7.40625 -0.625 C 7.53125 -0.613281 7.628906 -0.578125 7.703125 -0.515625 C 7.785156 -0.460938 7.828125 -0.367188 7.828125 -0.234375 C 7.828125 -0.0664062 7.804688 0.046875 7.765625 0.109375 C 7.722656 0.171875 7.617188 0.210938 7.453125 0.234375 C 7.203125 0.253906 6.945312 0.273438 6.6875 0.296875 C 6.425781 0.316406 6.171875 0.335938 5.921875 0.359375 Z M 5.921875 0.359375 "/></g></g></g><g fill="#26973c" fill-opacity="1"><g transform="translate(235.397881, 238.102528)"><g><path d="M 4.625 -0.453125 C 4.625 -0.453125 4.660156 -0.398438 4.734375 -0.296875 C 4.867188 -0.429688 4.976562 -0.578125 5.0625 -0.734375 C 5.144531 -0.898438 5.226562 -1.0625 5.3125 -1.21875 C 5.59375 -1.789062 5.820312 -2.375 6 -2.96875 C 6.1875 -3.570312 6.351562 -4.179688 6.5 -4.796875 C 6.65625 -5.410156 6.8125 -6.019531 6.96875 -6.625 C 7.132812 -7.238281 7.285156 -7.851562 7.421875 -8.46875 C 7.484375 -8.71875 7.53125 -8.972656 7.5625 -9.234375 C 7.59375 -9.503906 7.640625 -9.773438 7.703125 -10.046875 C 7.753906 -10.296875 7.8125 -10.445312 7.875 -10.5 C 7.9375 -10.5625 8.101562 -10.597656 8.375 -10.609375 C 8.5 -10.617188 8.625 -10.617188 8.75 -10.609375 C 8.882812 -10.609375 9.015625 -10.613281 9.140625 -10.625 C 9.304688 -10.65625 9.4375 -10.628906 9.53125 -10.546875 C 9.625 -10.460938 9.691406 -10.347656 9.734375 -10.203125 C 9.878906 -9.765625 10 -9.316406 10.09375 -8.859375 C 10.1875 -8.410156 10.273438 -7.953125 10.359375 -7.484375 C 10.492188 -6.816406 10.640625 -6.144531 10.796875 -5.46875 C 10.953125 -4.789062 11.164062 -4.140625 11.4375 -3.515625 C 11.519531 -3.347656 11.601562 -3.1875 11.6875 -3.03125 C 11.78125 -2.875 11.890625 -2.726562 12.015625 -2.59375 C 12.347656 -2.25 12.6875 -2.242188 13.03125 -2.578125 C 13.101562 -2.640625 13.164062 -2.710938 13.21875 -2.796875 C 13.28125 -2.878906 13.332031 -2.960938 13.375 -3.046875 C 13.664062 -3.535156 13.890625 -4.046875 14.046875 -4.578125 C 14.210938 -5.117188 14.347656 -5.671875 14.453125 -6.234375 C 14.484375 -6.390625 14.472656 -6.519531 14.421875 -6.625 C 14.378906 -6.738281 14.300781 -6.847656 14.1875 -6.953125 C 12.875 -8.171875 11.925781 -9.601562 11.34375 -11.25 C 11.195312 -11.675781 11.085938 -12.097656 11.015625 -12.515625 C 10.941406 -12.929688 10.9375 -13.363281 11 -13.8125 C 11.082031 -14.40625 11.335938 -14.832031 11.765625 -15.09375 C 12.203125 -15.363281 12.707031 -15.414062 13.28125 -15.25 C 13.601562 -15.15625 13.890625 -15.015625 14.140625 -14.828125 C 14.390625 -14.648438 14.613281 -14.4375 14.8125 -14.1875 C 15.0625 -13.851562 15.265625 -13.5 15.421875 -13.125 C 15.585938 -12.757812 15.71875 -12.378906 15.8125 -11.984375 C 16 -11.234375 16.113281 -10.476562 16.15625 -9.71875 C 16.195312 -8.96875 16.195312 -8.210938 16.15625 -7.453125 C 16.132812 -7.210938 16.171875 -7.015625 16.265625 -6.859375 C 16.359375 -6.703125 16.507812 -6.578125 16.71875 -6.484375 C 17.75 -5.929688 18.847656 -5.679688 20.015625 -5.734375 C 20.140625 -5.734375 20.238281 -5.71875 20.3125 -5.6875 C 20.394531 -5.664062 20.445312 -5.578125 20.46875 -5.421875 C 20.46875 -5.296875 20.429688 -5.210938 20.359375 -5.171875 C 20.285156 -5.140625 20.203125 -5.117188 20.109375 -5.109375 C 19.671875 -5.046875 19.234375 -5.019531 18.796875 -5.03125 C 18.367188 -5.050781 17.945312 -5.109375 17.53125 -5.203125 C 17.351562 -5.265625 17.171875 -5.316406 16.984375 -5.359375 C 16.804688 -5.410156 16.625 -5.460938 16.4375 -5.515625 C 16.226562 -5.578125 16.101562 -5.597656 16.0625 -5.578125 C 16.019531 -5.554688 15.976562 -5.441406 15.9375 -5.234375 C 15.894531 -4.960938 15.847656 -4.695312 15.796875 -4.4375 C 15.742188 -4.1875 15.675781 -3.925781 15.59375 -3.65625 C 15.519531 -3.46875 15.441406 -3.273438 15.359375 -3.078125 C 15.273438 -2.890625 15.175781 -2.710938 15.0625 -2.546875 C 14.738281 -2.035156 14.335938 -1.675781 13.859375 -1.46875 C 13.378906 -1.269531 12.851562 -1.15625 12.28125 -1.125 C 10.300781 -1.070312 8.941406 -2 8.203125 -3.90625 C 8.148438 -4.050781 8.097656 -4.191406 8.046875 -4.328125 C 7.992188 -4.472656 7.929688 -4.632812 7.859375 -4.8125 C 7.796875 -4.695312 7.75 -4.59375 7.71875 -4.5 C 7.6875 -4.40625 7.660156 -4.304688 7.640625 -4.203125 C 7.515625 -3.734375 7.382812 -3.257812 7.25 -2.78125 C 7.113281 -2.3125 6.960938 -1.84375 6.796875 -1.375 C 6.671875 -1.070312 6.535156 -0.773438 6.390625 -0.484375 C 6.242188 -0.203125 6.070312 0.0664062 5.875 0.328125 C 5.550781 0.765625 5.132812 1.003906 4.625 1.046875 C 3.875 1.097656 3.316406 1.007812 2.953125 0.78125 C 2.585938 0.550781 2.265625 0.164062 1.984375 -0.375 C 1.765625 -0.832031 1.597656 -1.304688 1.484375 -1.796875 C 1.367188 -2.285156 1.28125 -2.78125 1.21875 -3.28125 C 1.070312 -4.207031 1.015625 -5.132812 1.046875 -6.0625 C 1.078125 -6.988281 1.140625 -7.910156 1.234375 -8.828125 C 1.328125 -9.804688 1.460938 -10.773438 1.640625 -11.734375 C 1.816406 -12.703125 2.023438 -13.660156 2.265625 -14.609375 C 2.316406 -14.773438 2.359375 -14.925781 2.390625 -15.0625 C 2.472656 -15.351562 2.546875 -15.523438 2.609375 -15.578125 C 2.679688 -15.628906 2.863281 -15.644531 3.15625 -15.625 C 3.269531 -15.625 3.382812 -15.617188 3.5 -15.609375 C 3.625 -15.609375 3.75 -15.609375 3.875 -15.609375 C 4.164062 -15.597656 4.34375 -15.5625 4.40625 -15.5 C 4.476562 -15.4375 4.523438 -15.253906 4.546875 -14.953125 C 4.566406 -14.234375 4.554688 -13.523438 4.515625 -12.828125 C 4.453125 -11.859375 4.382812 -10.882812 4.3125 -9.90625 C 4.238281 -8.9375 4.175781 -7.960938 4.125 -6.984375 C 4.082031 -5.953125 4.09375 -4.921875 4.15625 -3.890625 C 4.226562 -2.859375 4.363281 -1.828125 4.5625 -0.796875 C 4.570312 -0.703125 4.59375 -0.585938 4.625 -0.453125 Z M 12.453125 -13.625 C 12.460938 -12.613281 12.675781 -11.695312 13.09375 -10.875 C 13.507812 -10.050781 14.015625 -9.257812 14.609375 -8.5 C 14.691406 -9.21875 14.710938 -9.925781 14.671875 -10.625 C 14.628906 -11.320312 14.492188 -12.015625 14.265625 -12.703125 C 14.171875 -12.960938 14.0625 -13.210938 13.9375 -13.453125 C 13.8125 -13.703125 13.648438 -13.925781 13.453125 -14.125 C 13.359375 -14.238281 13.25 -14.351562 13.125 -14.46875 C 13.007812 -14.582031 12.878906 -14.613281 12.734375 -14.5625 C 12.566406 -14.507812 12.476562 -14.394531 12.46875 -14.21875 C 12.46875 -14.050781 12.460938 -13.894531 12.453125 -13.75 C 12.453125 -13.71875 12.453125 -13.675781 12.453125 -13.625 Z M 12.453125 -13.625 "/></g></g></g><g fill="#26973c" fill-opacity="1"><g transform="translate(260.510723, 238.102528)"><g><path d="M 1.90625 -1.90625 C 1.59375 -2.625 1.367188 -3.390625 1.234375 -4.203125 C 1.097656 -5.015625 1.035156 -5.957031 1.046875 -7.03125 C 1.097656 -8.28125 1.316406 -9.609375 1.703125 -11.015625 C 2.085938 -12.429688 2.648438 -13.816406 3.390625 -15.171875 C 3.671875 -15.671875 3.992188 -16.125 4.359375 -16.53125 C 4.460938 -16.65625 4.578125 -16.769531 4.703125 -16.875 C 4.828125 -16.976562 4.972656 -17.066406 5.140625 -17.140625 C 5.609375 -17.347656 6.0625 -17.332031 6.5 -17.09375 C 6.988281 -16.84375 7.398438 -16.523438 7.734375 -16.140625 C 8.078125 -15.753906 8.382812 -15.335938 8.65625 -14.890625 C 9.125 -14.171875 9.472656 -13.410156 9.703125 -12.609375 C 9.929688 -11.804688 10.09375 -10.984375 10.1875 -10.140625 C 10.226562 -9.867188 10.253906 -9.585938 10.265625 -9.296875 C 10.285156 -9.015625 10.300781 -8.726562 10.3125 -8.4375 C 10.320312 -8.207031 10.347656 -8.0625 10.390625 -8 C 10.441406 -7.945312 10.578125 -7.890625 10.796875 -7.828125 C 11.078125 -7.722656 11.359375 -7.675781 11.640625 -7.6875 C 11.929688 -7.707031 12.210938 -7.742188 12.484375 -7.796875 C 12.835938 -7.867188 13.164062 -7.976562 13.46875 -8.125 C 13.78125 -8.269531 14.085938 -8.425781 14.390625 -8.59375 C 14.460938 -8.625 14.523438 -8.65625 14.578125 -8.6875 C 14.640625 -8.726562 14.703125 -8.757812 14.765625 -8.78125 C 14.847656 -8.8125 14.929688 -8.851562 15.015625 -8.90625 C 15.097656 -8.96875 15.179688 -8.925781 15.265625 -8.78125 C 15.460938 -8.445312 15.429688 -8.195312 15.171875 -8.03125 C 14.523438 -7.625 13.859375 -7.332031 13.171875 -7.15625 C 12.484375 -6.976562 11.757812 -6.9375 11 -7.03125 C 10.789062 -7.0625 10.632812 -7.082031 10.53125 -7.09375 C 10.4375 -7.101562 10.375 -7.0625 10.34375 -6.96875 C 10.3125 -6.875 10.285156 -6.6875 10.265625 -6.40625 C 10.222656 -5.726562 10.15625 -5.066406 10.0625 -4.421875 C 9.96875 -3.773438 9.816406 -3.140625 9.609375 -2.515625 C 9.484375 -2.117188 9.332031 -1.738281 9.15625 -1.375 C 8.988281 -1.019531 8.78125 -0.671875 8.53125 -0.328125 C 8.15625 0.148438 7.71875 0.484375 7.21875 0.671875 C 6.726562 0.867188 6.175781 0.9375 5.5625 0.875 C 4.664062 0.78125 3.914062 0.492188 3.3125 0.015625 C 2.71875 -0.453125 2.25 -1.09375 1.90625 -1.90625 Z M 5.3125 -11.0625 C 5.269531 -11.132812 5.226562 -11.203125 5.1875 -11.265625 C 5.15625 -11.335938 5.09375 -11.390625 5 -11.421875 C 4.988281 -11.390625 4.972656 -11.363281 4.953125 -11.34375 C 4.929688 -11.320312 4.921875 -11.300781 4.921875 -11.28125 C 4.671875 -9.976562 4.5 -8.675781 4.40625 -7.375 C 4.320312 -6.070312 4.367188 -4.765625 4.546875 -3.453125 C 4.597656 -2.992188 4.679688 -2.539062 4.796875 -2.09375 C 4.921875 -1.644531 5.085938 -1.210938 5.296875 -0.796875 C 5.492188 -0.398438 5.695312 -0.179688 5.90625 -0.140625 C 6.125 -0.0976562 6.394531 -0.222656 6.71875 -0.515625 C 6.925781 -0.710938 7.109375 -0.929688 7.265625 -1.171875 C 7.429688 -1.410156 7.578125 -1.65625 7.703125 -1.90625 C 8.128906 -2.738281 8.4375 -3.601562 8.625 -4.5 C 8.8125 -5.40625 8.9375 -6.328125 9 -7.265625 C 9.007812 -7.515625 8.894531 -7.703125 8.65625 -7.828125 C 7.9375 -8.191406 7.300781 -8.648438 6.75 -9.203125 C 6.207031 -9.765625 5.726562 -10.382812 5.3125 -11.0625 Z M 8.75 -8.96875 C 8.757812 -8.957031 8.78125 -8.941406 8.8125 -8.921875 C 8.851562 -8.910156 8.90625 -8.894531 8.96875 -8.875 C 9.007812 -9.195312 9.015625 -9.503906 8.984375 -9.796875 C 8.953125 -10.097656 8.914062 -10.390625 8.875 -10.671875 C 8.757812 -11.441406 8.578125 -12.1875 8.328125 -12.90625 C 8.085938 -13.632812 7.742188 -14.316406 7.296875 -14.953125 C 7.203125 -15.109375 7.097656 -15.253906 6.984375 -15.390625 C 6.878906 -15.523438 6.75 -15.644531 6.59375 -15.75 C 6.445312 -15.851562 6.335938 -15.894531 6.265625 -15.875 C 6.191406 -15.863281 6.117188 -15.773438 6.046875 -15.609375 C 5.921875 -15.335938 5.828125 -15.0625 5.765625 -14.78125 C 5.703125 -14.5 5.707031 -14.203125 5.78125 -13.890625 C 6 -12.910156 6.359375 -12.015625 6.859375 -11.203125 C 7.359375 -10.390625 7.988281 -9.644531 8.75 -8.96875 Z M 8.75 -8.96875 "/></g></g></g><g fill="#26973c" fill-opacity="1"><g transform="translate(280.501542, 238.102528)"><g><path d="M 3.90625 -14.734375 C 3.925781 -14.796875 3.945312 -14.863281 3.96875 -14.9375 C 4 -15.019531 4 -15.109375 3.96875 -15.203125 C 3.738281 -15.234375 3.5 -15.234375 3.25 -15.203125 C 3.007812 -15.179688 2.769531 -15.148438 2.53125 -15.109375 C 1.90625 -15.023438 1.285156 -14.898438 0.671875 -14.734375 C 0.0664062 -14.578125 -0.519531 -14.351562 -1.09375 -14.0625 C -1.28125 -13.957031 -1.40625 -13.914062 -1.46875 -13.9375 C -1.53125 -13.957031 -1.625 -14.0625 -1.75 -14.25 C -1.976562 -14.53125 -2.117188 -14.738281 -2.171875 -14.875 C -2.234375 -15.007812 -2.207031 -15.128906 -2.09375 -15.234375 C -1.976562 -15.347656 -1.769531 -15.488281 -1.46875 -15.65625 C 0.582031 -16.738281 2.742188 -17.078125 5.015625 -16.671875 C 5.203125 -16.648438 5.378906 -16.617188 5.546875 -16.578125 C 5.722656 -16.546875 5.894531 -16.5 6.0625 -16.4375 C 6.820312 -16.207031 7.582031 -16.054688 8.34375 -15.984375 C 9.113281 -15.910156 9.894531 -15.894531 10.6875 -15.9375 C 10.726562 -15.9375 10.773438 -15.941406 10.828125 -15.953125 C 10.878906 -15.960938 10.929688 -15.957031 10.984375 -15.9375 C 11.191406 -15.9375 11.316406 -15.914062 11.359375 -15.875 C 11.410156 -15.832031 11.445312 -15.722656 11.46875 -15.546875 C 11.476562 -15.304688 11.457031 -15.144531 11.40625 -15.0625 C 11.363281 -14.988281 11.238281 -14.953125 11.03125 -14.953125 C 10.34375 -14.929688 9.648438 -14.878906 8.953125 -14.796875 C 8.265625 -14.722656 7.582031 -14.765625 6.90625 -14.921875 C 6.675781 -14.972656 6.539062 -14.976562 6.5 -14.9375 C 6.457031 -14.894531 6.429688 -14.753906 6.421875 -14.515625 C 6.328125 -12.984375 6.1875 -11.453125 6 -9.921875 C 5.8125 -8.398438 5.664062 -6.867188 5.5625 -5.328125 C 5.507812 -4.609375 5.460938 -3.878906 5.421875 -3.140625 C 5.390625 -2.410156 5.414062 -1.6875 5.5 -0.96875 C 5.53125 -0.738281 5.5625 -0.507812 5.59375 -0.28125 C 5.632812 -0.0625 5.695312 0.15625 5.78125 0.375 C 5.832031 0.539062 5.898438 0.640625 5.984375 0.671875 C 6.066406 0.703125 6.191406 0.671875 6.359375 0.578125 C 6.492188 0.492188 6.625 0.394531 6.75 0.28125 C 6.882812 0.175781 7 0.0546875 7.09375 -0.078125 C 7.3125 -0.347656 7.507812 -0.628906 7.6875 -0.921875 C 7.863281 -1.222656 8.035156 -1.53125 8.203125 -1.84375 C 8.617188 -2.664062 8.976562 -3.515625 9.28125 -4.390625 C 9.582031 -5.273438 9.847656 -6.160156 10.078125 -7.046875 C 10.109375 -7.148438 10.132812 -7.242188 10.15625 -7.328125 C 10.1875 -7.421875 10.21875 -7.515625 10.25 -7.609375 C 10.289062 -7.773438 10.410156 -7.851562 10.609375 -7.84375 C 10.828125 -7.84375 10.972656 -7.800781 11.046875 -7.71875 C 11.117188 -7.644531 11.117188 -7.5 11.046875 -7.28125 C 10.785156 -6.257812 10.503906 -5.25 10.203125 -4.25 C 9.898438 -3.257812 9.507812 -2.296875 9.03125 -1.359375 C 8.882812 -1.054688 8.726562 -0.757812 8.5625 -0.46875 C 8.394531 -0.1875 8.210938 0.09375 8.015625 0.375 C 7.609375 0.90625 7.125 1.242188 6.5625 1.390625 C 6 1.546875 5.410156 1.535156 4.796875 1.359375 C 4.472656 1.265625 4.203125 1.113281 3.984375 0.90625 C 3.765625 0.707031 3.585938 0.460938 3.453125 0.171875 C 3.253906 -0.222656 3.101562 -0.628906 3 -1.046875 C 2.894531 -1.460938 2.816406 -1.890625 2.765625 -2.328125 C 2.554688 -3.691406 2.472656 -5.054688 2.515625 -6.421875 C 2.566406 -7.785156 2.703125 -9.15625 2.921875 -10.53125 C 3.054688 -11.238281 3.203125 -11.941406 3.359375 -12.640625 C 3.515625 -13.335938 3.695312 -14.035156 3.90625 -14.734375 Z M 3.90625 -14.734375 "/></g></g></g></svg>