<svg xmlns="http://www.w3.org/2000/svg" xmlns:xlink="http://www.w3.org/1999/xlink" width="500" zoomAndPan="magnify" viewBox="0 0 375 374.999991" height="500" preserveAspectRatio="xMidYMid meet" version="1.0"><defs><g/><clipPath id="e08772706b"><path d="M 97 82 L 156 82 L 156 169 L 97 169 Z M 97 82 " clip-rule="nonzero"/></clipPath><clipPath id="edf0640041"><path d="M 11.851562 137.355469 L 98.90625 50.300781 L 182.765625 134.160156 L 95.710938 221.214844 Z M 11.851562 137.355469 " clip-rule="nonzero"/></clipPath><clipPath id="04e2745e80"><path d="M 11.851562 137.355469 L 98.90625 50.300781 L 182.765625 134.160156 L 95.710938 221.214844 Z M 11.851562 137.355469 " clip-rule="nonzero"/></clipPath><clipPath id="00db981f7b"><path d="M 11.851562 137.355469 L 98.90625 50.300781 L 182.765625 134.160156 L 95.710938 221.214844 Z M 11.851562 137.355469 " clip-rule="nonzero"/></clipPath><clipPath id="867d1eb503"><path d="M 11 109 L 119 109 L 119 188 L 11 188 Z M 11 109 " clip-rule="nonzero"/></clipPath><clipPath id="fca8b5b183"><path d="M 11.851562 137.355469 L 98.90625 50.300781 L 182.765625 134.160156 L 95.710938 221.214844 Z M 11.851562 137.355469 " clip-rule="nonzero"/></clipPath><clipPath id="521ae97c95"><path d="M 11.851562 137.355469 L 98.90625 50.300781 L 182.765625 134.160156 L 95.710938 221.214844 Z M 11.851562 137.355469 " clip-rule="nonzero"/></clipPath><clipPath id="4fa234022f"><path d="M 11.851562 137.355469 L 98.90625 50.300781 L 182.765625 134.160156 L 95.710938 221.214844 Z M 11.851562 137.355469 " clip-rule="nonzero"/></clipPath></defs><g clip-path="url(#e08772706b)"><g clip-path="url(#edf0640041)"><g clip-path="url(#04e2745e80)"><g clip-path="url(#00db981f7b)"><path fill="#80cc28" d="M 155.007812 131.863281 C 150.855469 102.339844 101.414062 82.613281 101.414062 82.613281 C 101.414062 82.613281 107.160156 109.019531 100.320312 124.839844 C 95.75 135.410156 89.925781 169.257812 130.28125 168.253906 C 130.710938 168.246094 131.15625 168.222656 131.605469 168.1875 C 136.457031 153.03125 141.253906 119.222656 104.59375 86.445312 C 104.59375 86.445312 151.03125 119.09375 134 167.925781 C 144.847656 166.308594 158.714844 158.238281 155.007812 131.863281 " fill-opacity="1" fill-rule="nonzero"/></g></g></g></g><g clip-path="url(#867d1eb503)"><g clip-path="url(#fca8b5b183)"><g clip-path="url(#521ae97c95)"><g clip-path="url(#4fa234022f)"><path fill="#27963c" d="M 92.535156 139.207031 C 74.800781 131.246094 50.367188 127.363281 18.167969 136.515625 C 18.167969 136.515625 56.746094 120.472656 93.199219 135.636719 C 93.804688 132.964844 94.570312 130.660156 95.308594 128.957031 C 97.421875 124.0625 98.332031 118.160156 98.582031 112.335938 C 64.023438 99.46875 11.90625 137.320312 11.90625 137.320312 C 11.90625 137.320312 44.125 149.117188 56.480469 167.210938 C 64.207031 178.527344 93.074219 204.894531 118.207031 172.160156 C 93.605469 169.941406 90.660156 152.082031 92.535156 139.207031 " fill-opacity="1" fill-rule="nonzero"/></g></g></g></g><g fill="#3c4937" fill-opacity="1"><g transform="translate(115.256923, 220.116706)"><g><path d="M 3.625 -15.703125 C 3.625 -18.660156 4.160156 -21.210938 5.234375 -23.359375 C 6.304688 -25.503906 7.796875 -27.28125 9.703125 -28.6875 C 11.617188 -30.101562 13.898438 -31.160156 16.546875 -31.859375 C 19.203125 -32.566406 22.144531 -32.921875 25.375 -32.921875 C 28.1875 -32.921875 30.597656 -32.71875 32.609375 -32.3125 C 34.628906 -31.914062 36.613281 -31.378906 38.5625 -30.703125 L 38.5625 -31.609375 C 38.5625 -38.191406 34.703125 -41.484375 26.984375 -41.484375 C 24.835938 -41.484375 22.875 -41.414062 21.09375 -41.28125 C 19.3125 -41.144531 17.75 -40.707031 16.40625 -39.96875 C 15.875 -39.695312 15.132812 -39.5625 14.1875 -39.5625 C 12.445312 -39.5625 10.957031 -40.164062 9.71875 -41.375 C 8.476562 -42.582031 7.859375 -44.0625 7.859375 -45.8125 C 7.859375 -47.144531 8.242188 -48.347656 9.015625 -49.421875 C 9.785156 -50.503906 10.773438 -51.28125 11.984375 -51.75 C 14.398438 -52.6875 16.96875 -53.390625 19.6875 -53.859375 C 22.40625 -54.328125 25.570312 -54.5625 29.1875 -54.5625 C 37.113281 -54.5625 43.101562 -52.664062 47.15625 -48.875 C 51.21875 -45.082031 53.25 -39.226562 53.25 -31.3125 L 53.25 -6.75 C 53.25 -4.664062 52.523438 -2.914062 51.078125 -1.5 C 49.640625 -0.09375 47.882812 0.609375 45.8125 0.609375 C 43.59375 0.609375 41.8125 -0.046875 40.46875 -1.359375 C 39.125 -2.671875 38.453125 -4.128906 38.453125 -5.734375 L 38.453125 -5.84375 C 36.578125 -3.757812 34.347656 -2.097656 31.765625 -0.859375 C 29.179688 0.378906 25.972656 1 22.140625 1 C 19.597656 1 17.203125 0.648438 14.953125 -0.046875 C 12.703125 -0.753906 10.738281 -1.8125 9.0625 -3.21875 C 7.382812 -4.625 6.054688 -6.351562 5.078125 -8.40625 C 4.109375 -10.457031 3.625 -12.820312 3.625 -15.5 Z M 18.421875 -16.3125 L 18.421875 -16.109375 C 18.421875 -14.023438 19.191406 -12.410156 20.734375 -11.265625 C 22.273438 -10.128906 24.289062 -9.5625 26.78125 -9.5625 C 30.40625 -9.5625 33.304688 -10.429688 35.484375 -12.171875 C 37.671875 -13.921875 38.765625 -16.207031 38.765625 -19.03125 L 38.765625 -21.75 C 37.421875 -22.351562 35.925781 -22.835938 34.28125 -23.203125 C 32.632812 -23.578125 30.875 -23.765625 29 -23.765625 C 25.707031 -23.765625 23.117188 -23.125 21.234375 -21.84375 C 19.359375 -20.570312 18.421875 -18.726562 18.421875 -16.3125 Z M 18.421875 -16.3125 "/></g></g></g><g fill="#3c4937" fill-opacity="1"><g transform="translate(164.386027, 220.116706)"><g><path d="M 4.421875 -27.078125 C 4.421875 -31.578125 5.109375 -35.550781 6.484375 -39 C 7.867188 -42.457031 9.679688 -45.378906 11.921875 -47.765625 C 14.171875 -50.148438 16.769531 -51.945312 19.71875 -53.15625 C 22.675781 -54.363281 25.769531 -54.96875 29 -54.96875 C 33.09375 -54.96875 36.460938 -54.160156 39.109375 -52.546875 C 41.765625 -50.941406 44 -49.0625 45.8125 -46.90625 L 45.8125 -66.4375 C 45.8125 -68.59375 46.546875 -70.40625 48.015625 -71.875 C 49.492188 -73.351562 51.304688 -74.09375 53.453125 -74.09375 C 55.597656 -74.09375 57.410156 -73.351562 58.890625 -71.875 C 60.367188 -70.40625 61.109375 -68.59375 61.109375 -66.4375 L 61.109375 -7.046875 C 61.109375 -4.898438 60.367188 -3.085938 58.890625 -1.609375 C 57.410156 -0.128906 55.597656 0.609375 53.453125 0.609375 C 51.304688 0.609375 49.492188 -0.128906 48.015625 -1.609375 C 46.546875 -3.085938 45.8125 -4.898438 45.8125 -7.046875 L 45.8125 -7.75 C 43.925781 -5.195312 41.65625 -3.097656 39 -1.453125 C 36.351562 0.179688 33.019531 1 29 1 C 25.84375 1 22.785156 0.394531 19.828125 -0.8125 C 16.878906 -2.019531 14.265625 -3.8125 11.984375 -6.1875 C 9.703125 -8.570312 7.867188 -11.492188 6.484375 -14.953125 C 5.109375 -18.410156 4.421875 -22.382812 4.421875 -26.875 Z M 19.734375 -27.078125 L 19.734375 -26.875 C 19.734375 -24.664062 20.082031 -22.632812 20.78125 -20.78125 C 21.488281 -18.9375 22.445312 -17.359375 23.65625 -16.046875 C 24.863281 -14.742188 26.253906 -13.738281 27.828125 -13.03125 C 29.410156 -12.332031 31.109375 -11.984375 32.921875 -11.984375 C 34.734375 -11.984375 36.425781 -12.332031 38 -13.03125 C 39.582031 -13.738281 40.957031 -14.742188 42.125 -16.046875 C 43.300781 -17.359375 44.238281 -18.9375 44.9375 -20.78125 C 45.644531 -22.632812 46 -24.664062 46 -26.875 L 46 -27.078125 C 46 -29.296875 45.644531 -31.328125 44.9375 -33.171875 C 44.238281 -35.015625 43.300781 -36.585938 42.125 -37.890625 C 40.957031 -39.203125 39.582031 -40.210938 38 -40.921875 C 36.425781 -41.628906 34.734375 -41.984375 32.921875 -41.984375 C 31.109375 -41.984375 29.410156 -41.628906 27.828125 -40.921875 C 26.253906 -40.210938 24.863281 -39.203125 23.65625 -37.890625 C 22.445312 -36.585938 21.488281 -35.03125 20.78125 -33.21875 C 20.082031 -31.40625 19.734375 -29.359375 19.734375 -27.078125 Z M 19.734375 -27.078125 "/></g></g></g><g fill="#3c4937" fill-opacity="1"><g transform="translate(221.871168, 220.116706)"><g><path d="M 4.421875 -27.078125 C 4.421875 -31.578125 5.109375 -35.550781 6.484375 -39 C 7.867188 -42.457031 9.679688 -45.378906 11.921875 -47.765625 C 14.171875 -50.148438 16.769531 -51.945312 19.71875 -53.15625 C 22.675781 -54.363281 25.769531 -54.96875 29 -54.96875 C 33.09375 -54.96875 36.460938 -54.160156 39.109375 -52.546875 C 41.765625 -50.941406 44 -49.0625 45.8125 -46.90625 L 45.8125 -66.4375 C 45.8125 -68.59375 46.546875 -70.40625 48.015625 -71.875 C 49.492188 -73.351562 51.304688 -74.09375 53.453125 -74.09375 C 55.597656 -74.09375 57.410156 -73.351562 58.890625 -71.875 C 60.367188 -70.40625 61.109375 -68.59375 61.109375 -66.4375 L 61.109375 -7.046875 C 61.109375 -4.898438 60.367188 -3.085938 58.890625 -1.609375 C 57.410156 -0.128906 55.597656 0.609375 53.453125 0.609375 C 51.304688 0.609375 49.492188 -0.128906 48.015625 -1.609375 C 46.546875 -3.085938 45.8125 -4.898438 45.8125 -7.046875 L 45.8125 -7.75 C 43.925781 -5.195312 41.65625 -3.097656 39 -1.453125 C 36.351562 0.179688 33.019531 1 29 1 C 25.84375 1 22.785156 0.394531 19.828125 -0.8125 C 16.878906 -2.019531 14.265625 -3.8125 11.984375 -6.1875 C 9.703125 -8.570312 7.867188 -11.492188 6.484375 -14.953125 C 5.109375 -18.410156 4.421875 -22.382812 4.421875 -26.875 Z M 19.734375 -27.078125 L 19.734375 -26.875 C 19.734375 -24.664062 20.082031 -22.632812 20.78125 -20.78125 C 21.488281 -18.9375 22.445312 -17.359375 23.65625 -16.046875 C 24.863281 -14.742188 26.253906 -13.738281 27.828125 -13.03125 C 29.410156 -12.332031 31.109375 -11.984375 32.921875 -11.984375 C 34.734375 -11.984375 36.425781 -12.332031 38 -13.03125 C 39.582031 -13.738281 40.957031 -14.742188 42.125 -16.046875 C 43.300781 -17.359375 44.238281 -18.9375 44.9375 -20.78125 C 45.644531 -22.632812 46 -24.664062 46 -26.875 L 46 -27.078125 C 46 -29.296875 45.644531 -31.328125 44.9375 -33.171875 C 44.238281 -35.015625 43.300781 -36.585938 42.125 -37.890625 C 40.957031 -39.203125 39.582031 -40.210938 38 -40.921875 C 36.425781 -41.628906 34.734375 -41.984375 32.921875 -41.984375 C 31.109375 -41.984375 29.410156 -41.628906 27.828125 -40.921875 C 26.253906 -40.210938 24.863281 -39.203125 23.65625 -37.890625 C 22.445312 -36.585938 21.488281 -35.03125 20.78125 -33.21875 C 20.082031 -31.40625 19.734375 -29.359375 19.734375 -27.078125 Z M 19.734375 -27.078125 "/></g></g></g><g fill="#3c4937" fill-opacity="1"><g transform="translate(279.356305, 220.116706)"><g><path d="M 15.203125 -54.5625 C 17.347656 -54.5625 19.160156 -53.820312 20.640625 -52.34375 C 22.117188 -50.875 22.859375 -49.0625 22.859375 -46.90625 L 22.859375 -7.046875 C 22.859375 -4.898438 22.117188 -3.085938 20.640625 -1.609375 C 19.160156 -0.128906 17.347656 0.609375 15.203125 0.609375 C 13.054688 0.609375 11.242188 -0.128906 9.765625 -1.609375 C 8.285156 -3.085938 7.546875 -4.898438 7.546875 -7.046875 L 7.546875 -46.90625 C 7.546875 -49.0625 8.285156 -50.875 9.765625 -52.34375 C 11.242188 -53.820312 13.054688 -54.5625 15.203125 -54.5625 Z M 15.203125 -74 C 17.617188 -74 19.648438 -73.359375 21.296875 -72.078125 C 22.941406 -70.804688 23.765625 -69.0625 23.765625 -66.84375 L 23.765625 -66.640625 C 23.765625 -64.429688 22.941406 -62.671875 21.296875 -61.359375 C 19.648438 -60.046875 17.617188 -59.390625 15.203125 -59.390625 C 12.785156 -59.390625 10.753906 -60.046875 9.109375 -61.359375 C 7.460938 -62.671875 6.640625 -64.429688 6.640625 -66.640625 L 6.640625 -66.84375 C 6.640625 -69.0625 7.460938 -70.804688 9.109375 -72.078125 C 10.753906 -73.359375 12.785156 -74 15.203125 -74 Z M 15.203125 -74 "/></g></g></g><g fill="#3c4937" fill-opacity="1"><g transform="translate(299.289622, 220.116706)"><g><path d="M 8.5625 -16.40625 C 9.632812 -16.40625 10.640625 -16.140625 11.578125 -15.609375 C 14.265625 -14.128906 16.832031 -12.953125 19.28125 -12.078125 C 21.726562 -11.203125 24.023438 -10.765625 26.171875 -10.765625 C 28.390625 -10.765625 30.019531 -11.132812 31.0625 -11.875 C 32.101562 -12.613281 32.625 -13.585938 32.625 -14.796875 L 32.625 -15 C 32.625 -15.800781 32.320312 -16.503906 31.71875 -17.109375 C 31.113281 -17.710938 30.289062 -18.234375 29.25 -18.671875 C 28.207031 -19.109375 27.015625 -19.523438 25.671875 -19.921875 C 24.328125 -20.328125 22.914062 -20.765625 21.4375 -21.234375 C 19.5625 -21.773438 17.664062 -22.429688 15.75 -23.203125 C 13.84375 -23.972656 12.113281 -24.976562 10.5625 -26.21875 C 9.019531 -27.46875 7.757812 -29 6.78125 -30.8125 C 5.8125 -32.625 5.328125 -34.835938 5.328125 -37.453125 L 5.328125 -37.65625 C 5.328125 -40.40625 5.847656 -42.835938 6.890625 -44.953125 C 7.929688 -47.066406 9.34375 -48.859375 11.125 -50.328125 C 12.90625 -51.804688 15.003906 -52.914062 17.421875 -53.65625 C 19.835938 -54.394531 22.382812 -54.765625 25.0625 -54.765625 C 27.882812 -54.765625 30.703125 -54.378906 33.515625 -53.609375 C 36.335938 -52.835938 39.09375 -51.847656 41.78125 -50.640625 C 44.195312 -49.566406 45.40625 -47.65625 45.40625 -44.90625 C 45.40625 -43.15625 44.816406 -41.707031 43.640625 -40.5625 C 42.460938 -39.425781 41.003906 -38.859375 39.265625 -38.859375 C 38.253906 -38.859375 37.3125 -39.09375 36.4375 -39.5625 C 34.289062 -40.769531 32.210938 -41.640625 30.203125 -42.171875 C 28.191406 -42.710938 26.378906 -42.984375 24.765625 -42.984375 C 22.890625 -42.984375 21.476562 -42.628906 20.53125 -41.921875 C 19.59375 -41.222656 19.125 -40.335938 19.125 -39.265625 L 19.125 -39.0625 C 19.125 -38.382812 19.425781 -37.742188 20.03125 -37.140625 C 20.632812 -36.535156 21.4375 -35.984375 22.4375 -35.484375 C 23.445312 -34.984375 24.609375 -34.5 25.921875 -34.03125 C 27.234375 -33.5625 28.625 -33.09375 30.09375 -32.625 C 31.976562 -32.019531 33.894531 -31.296875 35.84375 -30.453125 C 37.789062 -29.609375 39.535156 -28.582031 41.078125 -27.375 C 42.617188 -26.175781 43.890625 -24.703125 44.890625 -22.953125 C 45.898438 -21.203125 46.40625 -19.085938 46.40625 -16.609375 L 46.40625 -16.40625 C 46.40625 -13.382812 45.882812 -10.78125 44.84375 -8.59375 C 43.800781 -6.414062 42.34375 -4.625 40.46875 -3.21875 C 38.59375 -1.8125 36.410156 -0.753906 33.921875 -0.046875 C 31.441406 0.648438 28.722656 1 25.765625 1 C 22.347656 1 18.910156 0.53125 15.453125 -0.40625 C 11.992188 -1.34375 8.65625 -2.921875 5.4375 -5.140625 C 4.632812 -5.671875 3.945312 -6.375 3.375 -7.25 C 2.800781 -8.125 2.515625 -9.164062 2.515625 -10.375 C 2.515625 -12.113281 3.082031 -13.550781 4.21875 -14.6875 C 5.363281 -15.832031 6.8125 -16.40625 8.5625 -16.40625 Z M 8.5625 -16.40625 "/></g></g></g><g fill="#26973c" fill-opacity="1"><g transform="translate(206.969594, 249.781926)"><g><path d="M 4.53125 -1.953125 C 4.53125 -2.816406 4.53125 -3.664062 4.53125 -4.5 C 4.53125 -5.34375 4.53125 -6.195312 4.53125 -7.0625 C 4.488281 -7.9375 4.5 -8.820312 4.5625 -9.71875 C 4.625 -10.613281 4.664062 -11.5 4.6875 -12.375 C 4.6875 -12.757812 4.648438 -12.984375 4.578125 -13.046875 C 4.503906 -13.109375 4.289062 -13.085938 3.9375 -12.984375 C 3.195312 -12.742188 2.585938 -12.34375 2.109375 -11.78125 C 2.046875 -11.738281 2 -11.679688 1.96875 -11.609375 C 1.9375 -11.535156 1.890625 -11.476562 1.828125 -11.4375 C 1.679688 -11.3125 1.472656 -11.242188 1.203125 -11.234375 C 0.941406 -11.222656 0.757812 -11.28125 0.65625 -11.40625 C 0.53125 -11.550781 0.488281 -11.703125 0.53125 -11.859375 C 0.570312 -12.015625 0.632812 -12.164062 0.71875 -12.3125 C 0.84375 -12.519531 0.988281 -12.703125 1.15625 -12.859375 C 1.332031 -13.023438 1.523438 -13.179688 1.734375 -13.328125 C 2.441406 -13.828125 3.226562 -14.128906 4.09375 -14.234375 C 4.570312 -14.296875 4.8125 -14.570312 4.8125 -15.0625 C 4.8125 -15.207031 4.8125 -15.351562 4.8125 -15.5 C 4.8125 -15.644531 4.8125 -15.789062 4.8125 -15.9375 C 4.832031 -17.03125 4.867188 -18.117188 4.921875 -19.203125 C 4.984375 -20.285156 5.085938 -21.359375 5.234375 -22.421875 C 5.273438 -22.867188 5.328125 -23.179688 5.390625 -23.359375 C 5.453125 -23.535156 5.578125 -23.640625 5.765625 -23.671875 C 5.953125 -23.703125 6.253906 -23.707031 6.671875 -23.6875 C 7.140625 -23.6875 7.46875 -23.664062 7.65625 -23.625 C 7.84375 -23.582031 7.972656 -23.46875 8.046875 -23.28125 C 8.117188 -23.09375 8.1875 -22.773438 8.25 -22.328125 C 8.332031 -21.679688 8.394531 -21.03125 8.4375 -20.375 C 8.476562 -19.726562 8.5 -19.078125 8.5 -18.421875 C 8.476562 -17.835938 8.46875 -17.242188 8.46875 -16.640625 C 8.46875 -16.046875 8.457031 -15.457031 8.4375 -14.875 C 8.4375 -14.675781 8.472656 -14.519531 8.546875 -14.40625 C 8.617188 -14.289062 8.765625 -14.222656 8.984375 -14.203125 C 9.773438 -14.117188 10.566406 -14.070312 11.359375 -14.0625 C 12.160156 -14.050781 12.960938 -14.046875 13.765625 -14.046875 C 13.992188 -14.046875 14.140625 -14.109375 14.203125 -14.234375 C 14.265625 -14.359375 14.304688 -14.515625 14.328125 -14.703125 C 14.410156 -15.816406 14.546875 -16.929688 14.734375 -18.046875 C 14.929688 -19.160156 15.132812 -20.273438 15.34375 -21.390625 C 15.425781 -21.765625 15.523438 -22.132812 15.640625 -22.5 C 15.753906 -22.875 15.875 -23.238281 16 -23.59375 C 16.164062 -24.050781 16.472656 -24.269531 16.921875 -24.25 C 17.273438 -24.25 17.617188 -24.253906 17.953125 -24.265625 C 18.285156 -24.273438 18.625 -24.28125 18.96875 -24.28125 C 19.238281 -24.28125 19.398438 -24.25 19.453125 -24.1875 C 19.503906 -24.125 19.5 -23.96875 19.4375 -23.71875 C 19.0625 -22.5 18.765625 -21.257812 18.546875 -20 C 18.335938 -18.738281 18.097656 -17.476562 17.828125 -16.21875 C 17.785156 -15.988281 17.742188 -15.75 17.703125 -15.5 C 17.660156 -15.25 17.617188 -14.992188 17.578125 -14.734375 C 17.515625 -14.378906 17.671875 -14.242188 18.046875 -14.328125 C 18.171875 -14.347656 18.296875 -14.375 18.421875 -14.40625 C 18.546875 -14.4375 18.6875 -14.460938 18.84375 -14.484375 C 18.925781 -14.503906 19.007812 -14.53125 19.09375 -14.5625 C 19.175781 -14.59375 19.257812 -14.609375 19.34375 -14.609375 C 19.488281 -14.609375 19.632812 -14.601562 19.78125 -14.59375 C 19.925781 -14.582031 20.019531 -14.472656 20.0625 -14.265625 C 20.101562 -14.097656 20.066406 -13.972656 19.953125 -13.890625 C 19.835938 -13.804688 19.71875 -13.742188 19.59375 -13.703125 C 19.40625 -13.640625 19.210938 -13.578125 19.015625 -13.515625 C 18.816406 -13.453125 18.609375 -13.410156 18.390625 -13.390625 C 18.035156 -13.347656 17.78125 -13.304688 17.625 -13.265625 C 17.46875 -13.222656 17.363281 -13.113281 17.3125 -12.9375 C 17.257812 -12.769531 17.210938 -12.488281 17.171875 -12.09375 C 16.960938 -10.3125 16.84375 -8.53125 16.8125 -6.75 C 16.78125 -4.976562 16.921875 -3.210938 17.234375 -1.453125 C 17.316406 -0.960938 17.425781 -0.492188 17.5625 -0.046875 C 17.695312 0.398438 17.867188 0.835938 18.078125 1.265625 C 18.140625 1.410156 18.207031 1.554688 18.28125 1.703125 C 18.351562 1.847656 18.441406 1.984375 18.546875 2.109375 C 18.785156 2.441406 18.976562 2.613281 19.125 2.625 C 19.269531 2.632812 19.488281 2.492188 19.78125 2.203125 C 20.132812 1.847656 20.441406 1.453125 20.703125 1.015625 C 20.972656 0.585938 21.210938 0.144531 21.421875 -0.3125 C 21.859375 -1.238281 22.257812 -2.175781 22.625 -3.125 C 23 -4.082031 23.382812 -5.035156 23.78125 -5.984375 C 23.820312 -6.109375 23.863281 -6.222656 23.90625 -6.328125 C 23.945312 -6.429688 24 -6.535156 24.0625 -6.640625 C 24.332031 -7.296875 24.773438 -7.4375 25.390625 -7.0625 C 25.535156 -6.976562 25.59375 -6.875 25.5625 -6.75 C 25.53125 -6.632812 25.492188 -6.523438 25.453125 -6.421875 C 25.078125 -5.304688 24.679688 -4.203125 24.265625 -3.109375 C 23.859375 -2.023438 23.394531 -0.957031 22.875 0.09375 C 22.65625 0.53125 22.410156 0.941406 22.140625 1.328125 C 21.867188 1.722656 21.585938 2.109375 21.296875 2.484375 C 20.597656 3.347656 19.679688 3.726562 18.546875 3.625 C 18.085938 3.582031 17.691406 3.445312 17.359375 3.21875 C 17.023438 3 16.71875 2.722656 16.4375 2.390625 C 16.101562 2.015625 15.828125 1.597656 15.609375 1.140625 C 15.390625 0.691406 15.195312 0.226562 15.03125 -0.25 C 14.6875 -1.257812 14.4375 -2.28125 14.28125 -3.3125 C 14.125 -4.351562 14.023438 -5.398438 13.984375 -6.453125 C 13.921875 -7.421875 13.910156 -8.375 13.953125 -9.3125 C 13.992188 -10.257812 14.046875 -11.207031 14.109375 -12.15625 C 14.128906 -12.550781 14.109375 -12.785156 14.046875 -12.859375 C 13.984375 -12.941406 13.753906 -12.984375 13.359375 -12.984375 C 12.617188 -12.984375 11.882812 -12.984375 11.15625 -12.984375 C 10.4375 -12.984375 9.710938 -12.984375 8.984375 -12.984375 C 8.679688 -12.984375 8.5 -12.957031 8.4375 -12.90625 C 8.375 -12.851562 8.332031 -12.664062 8.3125 -12.34375 C 8.144531 -10.5625 8.007812 -8.769531 7.90625 -6.96875 C 7.800781 -5.175781 7.71875 -3.378906 7.65625 -1.578125 C 7.613281 -0.898438 7.550781 -0.414062 7.46875 -0.125 C 7.382812 0.164062 7.1875 0.34375 6.875 0.40625 C 6.570312 0.46875 6.085938 0.476562 5.421875 0.4375 C 5.054688 0.414062 4.832031 0.226562 4.75 -0.125 C 4.664062 -0.414062 4.609375 -0.71875 4.578125 -1.03125 C 4.546875 -1.351562 4.53125 -1.660156 4.53125 -1.953125 Z M 4.53125 -1.953125 "/></g></g></g><g fill="#26973c" fill-opacity="1"><g transform="translate(239.467877, 249.781926)"><g><path d="M 8.921875 0.53125 C 8.265625 0.550781 7.613281 0.554688 6.96875 0.546875 C 6.332031 0.535156 5.703125 0.53125 5.078125 0.53125 C 4.460938 0.550781 3.847656 0.582031 3.234375 0.625 C 2.628906 0.664062 2.023438 0.695312 1.421875 0.71875 C 1.253906 0.71875 1.078125 0.710938 0.890625 0.703125 C 0.710938 0.691406 0.53125 0.6875 0.34375 0.6875 C 0.03125 0.664062 -0.132812 0.46875 -0.15625 0.09375 C -0.195312 -0.21875 -0.0507812 -0.40625 0.28125 -0.46875 C 1 -0.632812 1.703125 -0.726562 2.390625 -0.75 C 2.515625 -0.75 2.632812 -0.753906 2.75 -0.765625 C 2.863281 -0.773438 2.988281 -0.78125 3.125 -0.78125 C 3.394531 -0.800781 3.519531 -0.960938 3.5 -1.265625 C 3.5 -1.347656 3.5 -1.429688 3.5 -1.515625 C 3.5 -1.597656 3.5 -1.691406 3.5 -1.796875 C 3.5 -3.078125 3.492188 -4.351562 3.484375 -5.625 C 3.472656 -6.894531 3.488281 -8.171875 3.53125 -9.453125 C 3.59375 -11.523438 3.679688 -13.601562 3.796875 -15.6875 C 3.910156 -17.769531 4.082031 -19.835938 4.3125 -21.890625 C 4.351562 -22.441406 4.382812 -22.945312 4.40625 -23.40625 C 4.425781 -23.695312 4.394531 -23.878906 4.3125 -23.953125 C 4.226562 -24.023438 4.039062 -24.050781 3.75 -24.03125 C 3.4375 -24.007812 3.140625 -23.945312 2.859375 -23.84375 C 2.585938 -23.738281 2.316406 -23.625 2.046875 -23.5 C 1.878906 -23.414062 1.707031 -23.34375 1.53125 -23.28125 C 1.351562 -23.21875 1.15625 -23.195312 0.9375 -23.21875 C 0.832031 -23.238281 0.722656 -23.257812 0.609375 -23.28125 C 0.492188 -23.300781 0.40625 -23.375 0.34375 -23.5 C 0.28125 -23.644531 0.285156 -23.765625 0.359375 -23.859375 C 0.429688 -23.953125 0.507812 -24.039062 0.59375 -24.125 C 0.757812 -24.269531 0.9375 -24.398438 1.125 -24.515625 C 1.320312 -24.640625 1.523438 -24.753906 1.734375 -24.859375 C 2.785156 -25.316406 3.890625 -25.472656 5.046875 -25.328125 C 6.953125 -25.078125 8.847656 -24.984375 10.734375 -25.046875 C 10.890625 -25.046875 11.050781 -25.035156 11.21875 -25.015625 C 11.382812 -24.992188 11.53125 -24.929688 11.65625 -24.828125 C 11.96875 -24.585938 11.957031 -24.382812 11.625 -24.21875 C 11.5 -24.15625 11.367188 -24.113281 11.234375 -24.09375 C 11.097656 -24.070312 10.96875 -24.050781 10.84375 -24.03125 C 10.457031 -24.007812 10.070312 -23.984375 9.6875 -23.953125 C 9.300781 -23.921875 8.914062 -23.894531 8.53125 -23.875 C 8.28125 -23.875 8.117188 -23.828125 8.046875 -23.734375 C 7.972656 -23.640625 7.945312 -23.476562 7.96875 -23.25 C 8.050781 -22.007812 8.09375 -20.773438 8.09375 -19.546875 C 8.09375 -18.316406 8.0625 -17.082031 8 -15.84375 C 7.9375 -14.875 7.863281 -13.910156 7.78125 -12.953125 C 7.695312 -12.003906 7.632812 -11.046875 7.59375 -10.078125 C 7.507812 -8.691406 7.4375 -7.3125 7.375 -5.9375 C 7.3125 -4.5625 7.25 -3.179688 7.1875 -1.796875 C 7.1875 -1.335938 7.226562 -1.066406 7.3125 -0.984375 C 7.394531 -0.910156 7.664062 -0.875 8.125 -0.875 C 8.632812 -0.894531 9.140625 -0.925781 9.640625 -0.96875 C 10.140625 -1.019531 10.644531 -1.007812 11.15625 -0.9375 C 11.34375 -0.914062 11.492188 -0.863281 11.609375 -0.78125 C 11.722656 -0.695312 11.78125 -0.550781 11.78125 -0.34375 C 11.78125 -0.09375 11.75 0.078125 11.6875 0.171875 C 11.625 0.265625 11.46875 0.320312 11.21875 0.34375 C 10.832031 0.382812 10.445312 0.421875 10.0625 0.453125 C 9.675781 0.484375 9.296875 0.507812 8.921875 0.53125 Z M 8.921875 0.53125 "/></g></g></g><g fill="#26973c" fill-opacity="1"><g transform="translate(261.859783, 249.781926)"><g><path d="M 6.96875 -0.6875 C 6.96875 -0.6875 7.019531 -0.601562 7.125 -0.4375 C 7.332031 -0.644531 7.5 -0.867188 7.625 -1.109375 C 7.75 -1.359375 7.875 -1.597656 8 -1.828125 C 8.414062 -2.691406 8.757812 -3.570312 9.03125 -4.46875 C 9.3125 -5.375 9.566406 -6.289062 9.796875 -7.21875 C 10.023438 -8.132812 10.257812 -9.054688 10.5 -9.984375 C 10.75 -10.910156 10.976562 -11.832031 11.1875 -12.75 C 11.269531 -13.132812 11.335938 -13.523438 11.390625 -13.921875 C 11.441406 -14.316406 11.507812 -14.71875 11.59375 -15.125 C 11.675781 -15.5 11.765625 -15.726562 11.859375 -15.8125 C 11.953125 -15.894531 12.195312 -15.945312 12.59375 -15.96875 C 12.789062 -15.988281 12.988281 -15.992188 13.1875 -15.984375 C 13.382812 -15.972656 13.578125 -15.976562 13.765625 -16 C 14.015625 -16.039062 14.207031 -16 14.34375 -15.875 C 14.476562 -15.75 14.578125 -15.582031 14.640625 -15.375 C 14.878906 -14.695312 15.066406 -14.015625 15.203125 -13.328125 C 15.335938 -12.648438 15.46875 -11.96875 15.59375 -11.28125 C 15.800781 -10.269531 16.019531 -9.253906 16.25 -8.234375 C 16.476562 -7.210938 16.804688 -6.234375 17.234375 -5.296875 C 17.359375 -5.035156 17.484375 -4.789062 17.609375 -4.5625 C 17.734375 -4.332031 17.890625 -4.113281 18.078125 -3.90625 C 18.585938 -3.382812 19.101562 -3.375 19.625 -3.875 C 19.726562 -3.976562 19.820312 -4.09375 19.90625 -4.21875 C 19.988281 -4.34375 20.0625 -4.46875 20.125 -4.59375 C 20.570312 -5.332031 20.914062 -6.101562 21.15625 -6.90625 C 21.394531 -7.71875 21.597656 -8.546875 21.765625 -9.390625 C 21.804688 -9.617188 21.789062 -9.816406 21.71875 -9.984375 C 21.644531 -10.148438 21.523438 -10.304688 21.359375 -10.453125 C 19.378906 -12.304688 17.953125 -14.472656 17.078125 -16.953125 C 16.867188 -17.578125 16.703125 -18.203125 16.578125 -18.828125 C 16.460938 -19.460938 16.457031 -20.117188 16.5625 -20.796875 C 16.695312 -21.691406 17.085938 -22.335938 17.734375 -22.734375 C 18.390625 -23.140625 19.144531 -23.21875 20 -22.96875 C 20.488281 -22.820312 20.921875 -22.609375 21.296875 -22.328125 C 21.671875 -22.054688 22.003906 -21.734375 22.296875 -21.359375 C 22.679688 -20.847656 22.992188 -20.316406 23.234375 -19.765625 C 23.472656 -19.210938 23.664062 -18.640625 23.8125 -18.046875 C 24.082031 -16.910156 24.25 -15.773438 24.3125 -14.640625 C 24.375 -13.515625 24.375 -12.375 24.3125 -11.21875 C 24.289062 -10.851562 24.347656 -10.554688 24.484375 -10.328125 C 24.628906 -10.097656 24.859375 -9.910156 25.171875 -9.765625 C 26.722656 -8.921875 28.378906 -8.539062 30.140625 -8.625 C 30.328125 -8.625 30.476562 -8.601562 30.59375 -8.5625 C 30.71875 -8.519531 30.789062 -8.382812 30.8125 -8.15625 C 30.8125 -7.96875 30.753906 -7.847656 30.640625 -7.796875 C 30.535156 -7.742188 30.410156 -7.707031 30.265625 -7.6875 C 29.617188 -7.601562 28.96875 -7.570312 28.3125 -7.59375 C 27.664062 -7.613281 27.023438 -7.695312 26.390625 -7.84375 C 26.117188 -7.925781 25.847656 -8.003906 25.578125 -8.078125 C 25.304688 -8.148438 25.035156 -8.226562 24.765625 -8.3125 C 24.441406 -8.394531 24.25 -8.421875 24.1875 -8.390625 C 24.125 -8.359375 24.0625 -8.1875 24 -7.875 C 23.9375 -7.476562 23.863281 -7.082031 23.78125 -6.6875 C 23.695312 -6.300781 23.59375 -5.910156 23.46875 -5.515625 C 23.363281 -5.222656 23.25 -4.929688 23.125 -4.640625 C 23 -4.359375 22.851562 -4.09375 22.6875 -3.84375 C 22.195312 -3.0625 21.585938 -2.519531 20.859375 -2.21875 C 20.140625 -1.914062 19.347656 -1.742188 18.484375 -1.703125 C 15.503906 -1.617188 13.457031 -3.015625 12.34375 -5.890625 C 12.257812 -6.097656 12.179688 -6.304688 12.109375 -6.515625 C 12.035156 -6.722656 11.945312 -6.96875 11.84375 -7.25 C 11.738281 -7.082031 11.664062 -6.921875 11.625 -6.765625 C 11.582031 -6.617188 11.539062 -6.472656 11.5 -6.328125 C 11.3125 -5.617188 11.113281 -4.90625 10.90625 -4.1875 C 10.707031 -3.476562 10.484375 -2.773438 10.234375 -2.078125 C 10.046875 -1.617188 9.84375 -1.171875 9.625 -0.734375 C 9.40625 -0.304688 9.144531 0.101562 8.84375 0.5 C 8.363281 1.15625 7.738281 1.515625 6.96875 1.578125 C 5.832031 1.660156 4.988281 1.523438 4.4375 1.171875 C 3.894531 0.828125 3.414062 0.25 3 -0.5625 C 2.65625 -1.257812 2.398438 -1.972656 2.234375 -2.703125 C 2.066406 -3.441406 1.929688 -4.191406 1.828125 -4.953125 C 1.617188 -6.335938 1.535156 -7.726562 1.578125 -9.125 C 1.617188 -10.519531 1.710938 -11.910156 1.859375 -13.296875 C 2.003906 -14.765625 2.207031 -16.222656 2.46875 -17.671875 C 2.726562 -19.117188 3.039062 -20.554688 3.40625 -21.984375 C 3.488281 -22.234375 3.550781 -22.46875 3.59375 -22.6875 C 3.71875 -23.125 3.832031 -23.378906 3.9375 -23.453125 C 4.039062 -23.523438 4.3125 -23.550781 4.75 -23.53125 C 4.925781 -23.53125 5.101562 -23.523438 5.28125 -23.515625 C 5.457031 -23.503906 5.640625 -23.5 5.828125 -23.5 C 6.265625 -23.476562 6.535156 -23.421875 6.640625 -23.328125 C 6.742188 -23.234375 6.804688 -22.960938 6.828125 -22.515625 C 6.878906 -21.429688 6.867188 -20.363281 6.796875 -19.3125 C 6.691406 -17.863281 6.585938 -16.398438 6.484375 -14.921875 C 6.378906 -13.453125 6.285156 -11.984375 6.203125 -10.515625 C 6.140625 -8.960938 6.160156 -7.410156 6.265625 -5.859375 C 6.367188 -4.304688 6.566406 -2.753906 6.859375 -1.203125 C 6.890625 -1.046875 6.925781 -0.875 6.96875 -0.6875 Z M 18.75 -20.5 C 18.769531 -18.988281 19.09375 -17.613281 19.71875 -16.375 C 20.351562 -15.132812 21.109375 -13.9375 21.984375 -12.78125 C 22.109375 -13.875 22.140625 -14.945312 22.078125 -16 C 22.015625 -17.050781 21.816406 -18.09375 21.484375 -19.125 C 21.335938 -19.519531 21.171875 -19.898438 20.984375 -20.265625 C 20.796875 -20.640625 20.550781 -20.972656 20.25 -21.265625 C 20.101562 -21.429688 19.941406 -21.601562 19.765625 -21.78125 C 19.585938 -21.957031 19.394531 -22.003906 19.1875 -21.921875 C 18.9375 -21.835938 18.804688 -21.671875 18.796875 -21.421875 C 18.785156 -21.171875 18.769531 -20.929688 18.75 -20.703125 C 18.75 -20.648438 18.75 -20.582031 18.75 -20.5 Z M 18.75 -20.5 "/></g></g></g><g fill="#26973c" fill-opacity="1"><g transform="translate(299.678866, 249.781926)"><g><path d="M 2.859375 -2.859375 C 2.398438 -3.953125 2.066406 -5.109375 1.859375 -6.328125 C 1.648438 -7.546875 1.554688 -8.960938 1.578125 -10.578125 C 1.660156 -12.472656 1.988281 -14.476562 2.5625 -16.59375 C 3.144531 -18.71875 3.992188 -20.800781 5.109375 -22.84375 C 5.523438 -23.59375 6.003906 -24.273438 6.546875 -24.890625 C 6.710938 -25.078125 6.890625 -25.25 7.078125 -25.40625 C 7.273438 -25.5625 7.5 -25.691406 7.75 -25.796875 C 8.4375 -26.109375 9.117188 -26.085938 9.796875 -25.734375 C 10.535156 -25.359375 11.15625 -24.878906 11.65625 -24.296875 C 12.15625 -23.722656 12.617188 -23.097656 13.046875 -22.421875 C 13.734375 -21.335938 14.25 -20.191406 14.59375 -18.984375 C 14.945312 -17.773438 15.195312 -16.539062 15.34375 -15.28125 C 15.40625 -14.851562 15.445312 -14.425781 15.46875 -14 C 15.488281 -13.570312 15.507812 -13.132812 15.53125 -12.6875 C 15.550781 -12.351562 15.59375 -12.144531 15.65625 -12.0625 C 15.71875 -11.976562 15.914062 -11.882812 16.25 -11.78125 C 16.675781 -11.632812 17.101562 -11.570312 17.53125 -11.59375 C 17.957031 -11.613281 18.382812 -11.664062 18.8125 -11.75 C 19.332031 -11.851562 19.820312 -12.015625 20.28125 -12.234375 C 20.75 -12.453125 21.210938 -12.691406 21.671875 -12.953125 C 21.773438 -12.992188 21.867188 -13.039062 21.953125 -13.09375 C 22.035156 -13.144531 22.128906 -13.191406 22.234375 -13.234375 C 22.359375 -13.273438 22.484375 -13.335938 22.609375 -13.421875 C 22.742188 -13.503906 22.875 -13.441406 23 -13.234375 C 23.289062 -12.722656 23.238281 -12.34375 22.84375 -12.09375 C 21.875 -11.488281 20.867188 -11.046875 19.828125 -10.765625 C 18.785156 -10.492188 17.695312 -10.429688 16.5625 -10.578125 C 16.25 -10.617188 16.019531 -10.648438 15.875 -10.671875 C 15.726562 -10.691406 15.628906 -10.628906 15.578125 -10.484375 C 15.523438 -10.335938 15.488281 -10.054688 15.46875 -9.640625 C 15.40625 -8.628906 15.300781 -7.632812 15.15625 -6.65625 C 15.007812 -5.6875 14.773438 -4.726562 14.453125 -3.78125 C 14.265625 -3.1875 14.046875 -2.617188 13.796875 -2.078125 C 13.546875 -1.535156 13.234375 -1.007812 12.859375 -0.5 C 12.285156 0.226562 11.625 0.734375 10.875 1.015625 C 10.132812 1.304688 9.300781 1.410156 8.375 1.328125 C 7.03125 1.179688 5.90625 0.75 5 0.03125 C 4.101562 -0.6875 3.390625 -1.648438 2.859375 -2.859375 Z M 8 -16.65625 C 7.9375 -16.769531 7.878906 -16.878906 7.828125 -16.984375 C 7.773438 -17.085938 7.675781 -17.160156 7.53125 -17.203125 C 7.507812 -17.160156 7.484375 -17.125 7.453125 -17.09375 C 7.421875 -17.0625 7.40625 -17.023438 7.40625 -16.984375 C 7.019531 -15.023438 6.765625 -13.0625 6.640625 -11.09375 C 6.515625 -9.132812 6.578125 -7.171875 6.828125 -5.203125 C 6.921875 -4.503906 7.054688 -3.816406 7.234375 -3.140625 C 7.410156 -2.472656 7.65625 -1.828125 7.96875 -1.203125 C 8.257812 -0.609375 8.566406 -0.28125 8.890625 -0.21875 C 9.222656 -0.15625 9.628906 -0.34375 10.109375 -0.78125 C 10.421875 -1.082031 10.695312 -1.410156 10.9375 -1.765625 C 11.1875 -2.117188 11.40625 -2.484375 11.59375 -2.859375 C 12.238281 -4.117188 12.703125 -5.425781 12.984375 -6.78125 C 13.273438 -8.132812 13.460938 -9.519531 13.546875 -10.9375 C 13.566406 -11.3125 13.398438 -11.59375 13.046875 -11.78125 C 11.953125 -12.320312 10.992188 -13.015625 10.171875 -13.859375 C 9.359375 -14.703125 8.632812 -15.632812 8 -16.65625 Z M 13.171875 -13.515625 C 13.191406 -13.492188 13.226562 -13.472656 13.28125 -13.453125 C 13.332031 -13.429688 13.410156 -13.398438 13.515625 -13.359375 C 13.578125 -13.835938 13.582031 -14.300781 13.53125 -14.75 C 13.476562 -15.207031 13.421875 -15.644531 13.359375 -16.0625 C 13.191406 -17.21875 12.921875 -18.34375 12.546875 -19.4375 C 12.179688 -20.53125 11.664062 -21.554688 11 -22.515625 C 10.84375 -22.753906 10.679688 -22.972656 10.515625 -23.171875 C 10.347656 -23.367188 10.148438 -23.550781 9.921875 -23.71875 C 9.710938 -23.863281 9.550781 -23.925781 9.4375 -23.90625 C 9.320312 -23.882812 9.210938 -23.75 9.109375 -23.5 C 8.910156 -23.101562 8.765625 -22.6875 8.671875 -22.25 C 8.578125 -21.820312 8.582031 -21.378906 8.6875 -20.921875 C 9.03125 -19.453125 9.578125 -18.101562 10.328125 -16.875 C 11.085938 -15.644531 12.035156 -14.523438 13.171875 -13.515625 Z M 13.171875 -13.515625 "/></g></g></g><g fill="#26973c" fill-opacity="1"><g transform="translate(329.784357, 249.781926)"><g><path d="M 5.890625 -22.171875 C 5.910156 -22.273438 5.941406 -22.382812 5.984375 -22.5 C 6.023438 -22.625 6.023438 -22.757812 5.984375 -22.90625 C 5.628906 -22.945312 5.265625 -22.945312 4.890625 -22.90625 C 4.523438 -22.863281 4.164062 -22.8125 3.8125 -22.75 C 2.863281 -22.613281 1.929688 -22.425781 1.015625 -22.1875 C 0.109375 -21.945312 -0.773438 -21.609375 -1.640625 -21.171875 C -1.929688 -21.023438 -2.125 -20.96875 -2.21875 -21 C -2.3125 -21.03125 -2.453125 -21.179688 -2.640625 -21.453125 C -2.984375 -21.867188 -3.195312 -22.179688 -3.28125 -22.390625 C -3.363281 -22.609375 -3.316406 -22.796875 -3.140625 -22.953125 C -2.972656 -23.109375 -2.660156 -23.3125 -2.203125 -23.5625 C 0.878906 -25.195312 4.132812 -25.710938 7.5625 -25.109375 C 7.832031 -25.066406 8.097656 -25.019531 8.359375 -24.96875 C 8.617188 -24.914062 8.878906 -24.847656 9.140625 -24.765625 C 10.273438 -24.398438 11.414062 -24.164062 12.5625 -24.0625 C 13.71875 -23.957031 14.894531 -23.9375 16.09375 -24 C 16.15625 -24 16.222656 -24.003906 16.296875 -24.015625 C 16.367188 -24.023438 16.445312 -24.019531 16.53125 -24 C 16.851562 -24 17.050781 -23.96875 17.125 -23.90625 C 17.195312 -23.84375 17.242188 -23.675781 17.265625 -23.40625 C 17.285156 -23.050781 17.257812 -22.8125 17.1875 -22.6875 C 17.113281 -22.570312 16.914062 -22.515625 16.59375 -22.515625 C 15.570312 -22.472656 14.539062 -22.394531 13.5 -22.28125 C 12.457031 -22.164062 11.421875 -22.222656 10.390625 -22.453125 C 10.054688 -22.535156 9.859375 -22.546875 9.796875 -22.484375 C 9.734375 -22.421875 9.691406 -22.210938 9.671875 -21.859375 C 9.523438 -19.546875 9.304688 -17.238281 9.015625 -14.9375 C 8.734375 -12.644531 8.519531 -10.34375 8.375 -8.03125 C 8.289062 -6.9375 8.222656 -5.835938 8.171875 -4.734375 C 8.117188 -3.640625 8.15625 -2.546875 8.28125 -1.453125 C 8.320312 -1.109375 8.367188 -0.769531 8.421875 -0.4375 C 8.472656 -0.101562 8.5625 0.226562 8.6875 0.5625 C 8.769531 0.8125 8.875 0.957031 9 1 C 9.132812 1.050781 9.328125 1.007812 9.578125 0.875 C 9.785156 0.75 9.984375 0.601562 10.171875 0.4375 C 10.359375 0.269531 10.523438 0.0820312 10.671875 -0.125 C 11.015625 -0.519531 11.316406 -0.941406 11.578125 -1.390625 C 11.835938 -1.847656 12.09375 -2.304688 12.34375 -2.765625 C 12.976562 -4.003906 13.519531 -5.285156 13.96875 -6.609375 C 14.414062 -7.929688 14.820312 -9.265625 15.1875 -10.609375 C 15.226562 -10.765625 15.269531 -10.910156 15.3125 -11.046875 C 15.351562 -11.179688 15.394531 -11.320312 15.4375 -11.46875 C 15.5 -11.71875 15.675781 -11.832031 15.96875 -11.8125 C 16.300781 -11.8125 16.519531 -11.753906 16.625 -11.640625 C 16.738281 -11.523438 16.738281 -11.300781 16.625 -10.96875 C 16.226562 -9.425781 15.800781 -7.90625 15.34375 -6.40625 C 14.894531 -4.90625 14.316406 -3.453125 13.609375 -2.046875 C 13.378906 -1.585938 13.132812 -1.140625 12.875 -0.703125 C 12.625 -0.273438 12.351562 0.144531 12.0625 0.5625 C 11.457031 1.363281 10.726562 1.878906 9.875 2.109375 C 9.019531 2.335938 8.132812 2.316406 7.21875 2.046875 C 6.726562 1.898438 6.320312 1.671875 6 1.359375 C 5.675781 1.054688 5.410156 0.6875 5.203125 0.25 C 4.898438 -0.332031 4.671875 -0.9375 4.515625 -1.5625 C 4.359375 -2.195312 4.238281 -2.84375 4.15625 -3.5 C 3.84375 -5.550781 3.722656 -7.601562 3.796875 -9.65625 C 3.867188 -11.71875 4.070312 -13.78125 4.40625 -15.84375 C 4.59375 -16.914062 4.804688 -17.972656 5.046875 -19.015625 C 5.296875 -20.066406 5.578125 -21.117188 5.890625 -22.171875 Z M 5.890625 -22.171875 "/></g></g></g></svg>